<?xml version="1.0" standalone="no"?>
<!DOCTYPE svg PUBLIC "-//W3C//DTD SVG 20010904//EN"
 "http://www.w3.org/TR/2001/REC-SVG-20010904/DTD/svg10.dtd">
<svg version="1.0" xmlns="http://www.w3.org/2000/svg"
 width="2000.000000pt" height="2000.000000pt" viewBox="0 0 2000.000000 2000.000000"
 preserveAspectRatio="xMidYMid meet">

<g transform="translate(0.000000,2000.000000) scale(0.100000,-0.100000)"
fill="#000000" stroke="none">
<path d="M11842 14902 c-388 -405 -561 -667 -760 -1147 -73 -175 -102 -238
-119 -257 -29 -33 -61 -22 -124 42 -44 45 -66 60 -86 60 -45 0 -136 -73 -293
-232 -102 -104 -152 -148 -167 -148 -13 0 -23 4 -23 9 0 17 -123 141 -140 141
-10 0 -38 -15 -62 -33 l-44 -34 -99 90 c-213 192 -291 217 -425 140 -143 -83
-511 -343 -652 -460 -164 -137 -263 -288 -294 -448 -8 -44 -17 -89 -19 -100
-2 -12 -36 -61 -74 -109 -79 -102 -144 -225 -168 -323 -10 -38 -18 -69 -18
-70 -1 -2 -19 6 -40 17 -50 26 -111 26 -150 0 -43 -28 -60 -25 -84 16 -21 35
-23 36 -69 31 -26 -3 -56 -8 -68 -12 -18 -6 -32 9 -95 97 -72 102 -196 238
-217 238 -24 0 -69 -23 -97 -50 -19 -18 -43 -30 -65 -32 -30 -3 -35 -7 -35
-28 0 -17 8 -29 28 -38 39 -19 70 -9 121 38 24 22 48 40 53 40 6 0 13 -42 15
-97 5 -78 12 -115 37 -178 21 -53 36 -118 47 -199 16 -130 18 -136 39 -136 21
0 29 61 21 173 -6 79 -15 121 -41 192 -30 80 -54 163 -55 189 0 5 33 -44 74
-110 41 -65 84 -128 94 -140 14 -14 23 -47 31 -110 13 -99 47 -251 60 -273 5
-8 16 -11 26 -7 16 6 17 16 10 89 -6 78 -28 208 -40 249 -5 13 -1 18 13 18 17
0 20 -10 26 -78 13 -158 93 -559 117 -589 48 -56 34 125 -35 470 -17 86 -31
157 -30 157 0 0 15 -7 32 -16 29 -14 32 -20 32 -59 0 -116 130 -692 180 -797
l18 -37 -142 -90 c-77 -49 -222 -147 -321 -217 -99 -70 -223 -155 -275 -189
-133 -87 -270 -139 -317 -121 -14 6 -2 16 52 44 89 48 162 98 174 121 7 13 6
24 -3 37 -14 18 -16 18 -99 -4 -47 -12 -90 -22 -97 -22 -18 0 -5 41 46 147 24
51 44 99 44 106 0 20 -29 43 -71 56 -54 17 -75 44 -61 77 16 34 15 83 -3 135
-9 24 -13 50 -9 59 3 8 14 50 24 93 l18 77 -47 0 c-57 0 -85 15 -58 31 49 29
69 56 74 100 6 49 -9 89 -31 89 -22 0 -75 67 -80 102 -3 18 -10 95 -16 170
-17 230 -33 278 -90 278 -51 0 -64 -36 -70 -200 -6 -132 -22 -224 -50 -280 -4
-8 -36 -34 -71 -58 -35 -24 -64 -48 -64 -55 0 -6 14 -15 30 -18 17 -4 24 -7
16 -8 -9 -1 -12 -9 -9 -25 4 -19 0 -26 -18 -30 -41 -11 -58 -49 -51 -116 7
-58 6 -60 -23 -75 -35 -18 -60 -52 -60 -81 0 -15 13 -28 45 -45 39 -21 43 -25
30 -40 -8 -8 -15 -27 -15 -42 0 -22 -11 -32 -70 -64 -62 -33 -70 -41 -68 -63
3 -23 8 -26 67 -32 65 -7 94 -18 48 -18 -42 0 -57 -10 -57 -40 0 -21 7 -30 30
-40 l30 -13 -25 -23 c-28 -26 -29 -34 -10 -88 l13 -38 -59 -27 c-60 -26 -81
-53 -59 -75 8 -8 -6 -13 -57 -21 -63 -9 -68 -12 -71 -37 -3 -21 5 -32 40 -56
24 -16 58 -37 76 -46 31 -16 43 -48 22 -61 -18 -11 -11 -53 12 -69 12 -9 29
-36 39 -60 l17 -45 -57 -16 c-163 -46 -166 -48 -169 -81 -3 -30 0 -33 73 -65
l77 -33 -82 -16 c-56 -10 -85 -21 -91 -32 -15 -27 6 -55 47 -62 46 -9 38 -16
-38 -36 -100 -25 -104 -62 -13 -107 50 -25 55 -30 55 -61 0 -39 -23 -88 -48
-101 -9 -5 -44 -14 -77 -21 -33 -7 -80 -23 -105 -36 -87 -46 -107 -43 -250 36
-52 29 -111 25 -225 -16 -299 -107 -358 -124 -425 -124 -129 0 -759 91 -795
114 -38 25 -57 62 -84 165 -14 50 -28 91 -31 91 -3 0 -14 -15 -24 -32 -28 -48
-66 -87 -107 -108 l-36 -19 -104 33 c-138 43 -240 97 -291 155 -23 27 -67 103
-105 181 -91 192 -109 224 -177 325 -78 117 -242 279 -327 325 -62 33 -68 34
-214 41 -82 4 -183 15 -224 24 -49 12 -92 15 -128 11 -29 -3 -53 -4 -53 -2 0
2 35 26 78 52 163 102 323 299 387 477 13 38 26 52 63 74 85 49 113 76 184
175 92 129 121 151 172 132 14 -5 10 -14 -19 -50 -20 -24 -63 -69 -95 -100
-33 -31 -60 -65 -60 -76 0 -56 130 27 230 147 40 47 84 91 99 97 75 29 132 60
187 102 57 43 120 76 143 76 5 0 15 -17 22 -37 7 -21 32 -81 56 -133 28 -59
51 -131 63 -190 15 -71 35 -126 78 -215 69 -140 95 -176 113 -158 16 16 5 55
-67 223 -59 141 -70 186 -24 100 45 -82 74 -115 94 -107 22 9 17 34 -21 120
-28 63 -24 81 18 75 16 -2 50 -39 114 -128 76 -104 89 -127 77 -136 -10 -7
-12 -20 -7 -42 7 -34 71 -139 98 -161 9 -7 17 -21 17 -30 0 -11 -7 -7 -23 13
-20 25 -26 27 -45 17 -13 -7 -22 -21 -22 -35 0 -26 33 -61 49 -51 25 15 7 -10
-52 -72 -116 -122 -162 -164 -215 -195 -51 -29 -77 -64 -96 -125 -4 -12 -25
-55 -47 -94 -41 -76 -47 -99 -26 -99 23 0 85 73 126 151 30 55 49 79 73 91 75
35 208 183 250 275 30 69 115 173 254 315 151 154 194 210 258 333 42 80 139
205 151 193 3 -2 0 -20 -5 -39 -16 -53 -13 -79 9 -79 22 0 55 68 107 223 101
295 193 460 358 645 61 68 84 108 111 192 44 139 161 315 323 492 45 48 86 96
92 108 l11 21 25 -26 c30 -33 30 -35 -2 -35 -18 0 -44 -17 -82 -54 l-56 -54
24 -51 c37 -80 34 -159 -13 -304 -26 -80 -49 -133 -73 -164 -50 -65 -87 -143
-119 -248 -15 -49 -49 -145 -76 -212 -49 -121 -57 -157 -40 -168 11 -6 37 29
81 113 18 34 35 61 37 59 2 -2 -3 -33 -12 -68 -20 -84 -19 -128 1 -136 9 -3
20 0 26 8 7 10 8 9 4 -6 -17 -60 -26 -137 -26 -212 0 -82 10 -123 31 -123 18
0 27 46 39 187 13 145 7 189 -24 177 -9 -4 -3 29 21 108 19 62 35 133 36 158
2 41 0 45 -20 44 -27 -1 -25 9 18 130 36 100 79 167 129 200 21 14 60 55 87
90 48 64 87 96 117 96 9 0 30 -30 53 -77 31 -66 55 -96 154 -194 96 -95 128
-136 180 -224 35 -60 70 -110 77 -113 28 -9 11 67 -38 167 l-50 102 0 109 c0
60 -5 155 -11 210 -6 56 -9 103 -7 106 2 2 49 -37 104 -87 70 -64 108 -108
131 -150 47 -88 67 -110 224 -245 137 -118 179 -143 179 -109 0 9 12 27 27 41
37 34 19 53 -28 30 l-33 -17 -134 133 c-102 102 -141 148 -167 198 -36 70
-129 167 -285 297 -202 167 -445 323 -505 323 -48 0 -256 -203 -354 -345 -54
-78 -117 -199 -150 -290 -16 -45 -42 -83 -103 -150 -116 -129 -200 -263 -278
-441 -82 -187 -84 -189 -188 -302 -46 -49 -89 -100 -96 -113 -7 -13 -30 -55
-51 -94 -38 -71 -105 -170 -146 -215 -12 -14 -52 -56 -89 -95 -36 -38 -78 -86
-94 -105 -16 -19 -31 -30 -33 -24 -4 11 -81 129 -211 322 -92 137 -131 161
-208 132 -21 -8 -31 -7 -44 5 -9 8 -23 15 -31 15 -15 1 -36 26 -69 86 -12 21
-38 64 -58 95 -60 94 -118 99 -241 19 -96 -62 -190 -90 -305 -90 l-95 0 -44
-42 c-24 -24 -72 -81 -106 -128 -62 -85 -96 -117 -159 -147 -41 -19 -65 -54
-101 -141 -33 -80 -62 -128 -127 -208 -72 -91 -143 -162 -210 -210 -59 -42
-108 -92 -146 -147 -9 -13 -39 -35 -65 -47 -72 -35 -159 -30 -298 15 -122 41
-232 50 -295 26 -111 -42 -256 -136 -340 -220 -58 -58 -63 -65 -43 -69 14 -2
41 9 68 28 25 17 66 40 90 51 24 11 57 31 73 44 38 32 186 102 233 110 31 6
42 1 95 -38 72 -54 102 -70 176 -91 56 -16 108 -60 108 -92 0 -7 -16 -35 -36
-60 -19 -26 -44 -65 -56 -88 -34 -69 -67 -106 -151 -168 -103 -76 -157 -103
-246 -124 -81 -18 -119 -44 -156 -109 -14 -23 -34 -50 -45 -60 -26 -24 -25
-45 2 -45 19 0 118 93 118 112 0 8 53 25 110 33 71 11 132 38 214 95 111 77
167 136 209 223 49 100 64 116 305 305 99 77 154 95 274 89 53 -3 103 -9 112
-14 13 -7 0 -28 -73 -118 -48 -61 -116 -136 -151 -167 -62 -56 -69 -78 -27
-78 54 0 169 104 267 240 85 120 89 124 126 110 63 -24 106 -86 106 -154 1
-55 -48 -320 -79 -425 -29 -101 -76 -218 -106 -263 -12 -18 -42 -46 -66 -63
-38 -26 -51 -30 -116 -31 -73 -1 -75 -2 -123 -45 -27 -24 -74 -57 -106 -73
-57 -29 -72 -57 -33 -64 32 -6 126 30 166 65 36 31 47 34 108 37 38 1 75 5 83
9 10 4 22 -4 35 -26 13 -20 36 -37 67 -49 27 -10 69 -26 94 -35 66 -25 85 -55
94 -152 11 -105 38 -161 135 -286 103 -131 131 -176 146 -236 17 -65 46 -86
89 -64 39 20 50 43 50 105 0 82 -28 120 -142 196 -136 91 -140 99 -143 243 -1
99 -6 127 -29 191 -16 43 -28 98 -29 130 -2 54 11 155 18 148 2 -2 14 -51 25
-108 35 -167 98 -410 110 -426 7 -7 17 -11 22 -7 26 16 -30 343 -99 572 l-36
124 23 19 c14 11 27 15 32 10 5 -5 16 -52 23 -105 25 -165 79 -406 107 -479
17 -46 38 -35 38 20 0 66 -47 331 -77 437 -3 12 10 2 34 -25 37 -41 41 -51 47
-115 7 -86 58 -336 86 -427 22 -71 36 -90 51 -67 12 18 6 65 -42 331 -21 120
-39 220 -39 223 0 3 13 -1 28 -9 26 -14 29 -21 41 -108 14 -107 81 -445 111
-563 23 -88 44 -122 57 -89 9 24 -28 280 -72 499 -19 94 -35 174 -35 180 0 5
19 -11 42 -35 l42 -44 33 -195 c38 -221 97 -487 114 -507 23 -28 32 -2 26 75
-7 89 -49 340 -81 482 -12 54 -21 99 -18 99 2 0 17 -9 33 -21 22 -15 29 -28
29 -53 0 -73 92 -473 136 -593 21 -57 44 -57 44 -1 0 50 -60 348 -95 468 -13
46 -23 86 -21 87 2 2 19 -12 38 -30 30 -28 36 -42 47 -112 29 -179 141 -584
172 -621 51 -61 32 73 -61 436 -22 85 -40 159 -40 165 0 5 23 -14 50 -44 28
-30 50 -63 50 -74 0 -66 142 -540 203 -679 27 -61 57 -78 57 -33 0 23 -96 364
-159 563 -25 79 -27 92 -13 86 9 -4 29 -9 44 -12 22 -3 28 -10 28 -31 0 -35
50 -223 106 -400 69 -218 102 -283 120 -237 8 21 -56 275 -115 456 -27 85 -48
156 -46 158 3 4 55 -74 105 -159 15 -25 35 -73 45 -105 70 -245 126 -382 194
-484 17 -25 31 -53 31 -63 0 -34 31 -77 70 -97 21 -11 42 -20 45 -20 11 0 4
92 -9 124 -7 18 -29 46 -49 62 -47 39 -93 135 -178 371 -63 176 -188 642 -189
707 0 19 23 19 156 0 36 -5 115 9 174 30 11 4 28 -18 61 -77 26 -45 45 -83 44
-85 -1 -1 -19 5 -40 14 -32 13 -45 14 -82 3 -24 -6 -42 -15 -41 -20 2 -4 128
-103 282 -219 l278 -210 97 0 c109 0 198 19 251 54 104 68 211 54 303 -40 36
-37 36 -37 18 -63 -49 -70 -40 -107 54 -203 41 -43 75 -81 75 -86 0 -12 -76
-22 -174 -22 -106 0 -112 -5 -88 -61 11 -24 28 -52 39 -61 27 -24 102 -56 151
-64 57 -9 53 -20 -10 -28 -28 -4 -60 -12 -71 -17 -13 -8 -44 -7 -99 0 -87 12
-108 6 -108 -30 0 -13 -7 -19 -24 -19 -13 0 -31 -3 -39 -6 -28 -10 17 -88 118
-206 99 -116 137 -186 116 -212 -10 -12 -22 -11 -79 6 -37 11 -91 31 -121 44
-70 31 -106 31 -127 -1 -18 -28 -21 -21 63 -136 35 -48 63 -91 63 -96 0 -5
-33 -19 -72 -31 -40 -11 -101 -31 -136 -43 -55 -19 -68 -21 -103 -10 -68 21
-110 70 -219 258 -134 233 -147 253 -166 253 -29 0 -10 -72 50 -192 l55 -110
-40 6 c-21 3 -63 18 -93 33 l-53 26 -41 106 c-48 122 -75 171 -97 171 -23 0
-19 -63 10 -144 13 -39 23 -71 22 -73 -2 -1 -18 5 -37 15 -28 14 -39 31 -71
110 -46 115 -70 156 -92 160 -25 5 -22 -41 8 -135 14 -43 25 -81 25 -85 0 -3
-13 -1 -29 5 -26 9 -30 17 -36 66 -24 191 -96 315 -94 163 0 -31 8 -88 18
-125 14 -56 15 -67 3 -62 -7 3 -17 5 -22 5 -4 0 -10 18 -14 40 -7 46 -153 489
-185 563 -23 53 -51 64 -51 19 0 -64 81 -338 150 -507 l37 -91 -57 18 -57 19
-6 62 c-13 127 -78 329 -110 335 -14 3 -17 -4 -17 -40 0 -52 30 -178 63 -271
19 -52 21 -67 11 -63 -8 3 -43 13 -77 22 -34 9 -63 17 -64 18 -1 1 -18 76 -37
166 -42 194 -67 275 -87 275 -32 0 -14 -182 33 -343 11 -40 18 -75 15 -78 -14
-14 -35 6 -41 38 -9 51 -95 306 -119 358 -26 54 -57 66 -57 23 0 -39 43 -197
80 -290 16 -42 28 -78 26 -80 -1 -2 -17 7 -35 19 -28 19 -42 47 -91 173 -72
189 -112 276 -134 294 -45 37 -31 -41 48 -259 31 -85 57 -158 59 -163 2 -7
-170 -12 -323 -7 -70 2 -103 -3 -189 -29 -109 -32 -128 -42 -117 -60 10 -16
84 -14 188 5 73 14 101 15 156 6 40 -7 115 -9 182 -6 108 6 120 4 190 -21 41
-15 128 -54 194 -87 65 -33 191 -88 280 -123 88 -34 265 -109 391 -165 127
-56 304 -133 393 -171 239 -100 302 -141 452 -291 139 -139 139 -141 21 -113
-73 18 -91 15 -91 -15 0 -13 19 -32 57 -57 l56 -38 -69 -8 c-73 -7 -200 -42
-221 -59 -17 -14 -16 -55 1 -61 7 -3 89 -13 182 -22 93 -10 176 -21 184 -26 8
-4 -81 -5 -199 -2 l-215 6 23 -31 c12 -18 43 -48 68 -67 60 -46 110 -47 193
-5 33 17 80 33 105 37 89 12 193 -68 211 -164 8 -40 -6 -59 -61 -84 -86 -39
-170 -12 -265 85 -30 31 -58 56 -61 56 -12 0 -49 -102 -49 -134 0 -36 22 -60
111 -119 30 -20 65 -50 77 -67 l22 -29 -130 -42 c-132 -42 -149 -54 -134 -94
6 -16 16 -17 83 -11 173 15 328 19 346 8 17 -9 15 -11 -15 -16 -19 -3 -111
-10 -205 -16 -136 -8 -172 -14 -182 -27 -24 -32 1 -48 114 -73 122 -27 129
-22 -67 -50 -47 -6 -91 -17 -99 -23 -7 -7 -77 -23 -155 -37 -141 -26 -141 -26
-144 -54 -2 -16 0 -32 5 -37 5 -5 61 -17 126 -26 65 -10 111 -21 104 -25 -6
-4 -22 -8 -33 -8 -12 0 -28 -9 -35 -21 -14 -20 -16 -19 -129 34 -63 30 -158
75 -210 99 -119 56 -184 108 -253 200 -50 68 -222 284 -511 642 -66 81 -135
160 -154 174 -34 26 -40 27 -171 28 -196 1 -238 14 -428 140 -199 133 -553
300 -775 368 -69 21 -92 33 -117 61 -17 20 -31 37 -31 39 0 1 -14 67 -30 144
-53 249 -70 381 -80 597 -6 122 -16 231 -24 260 -31 108 -80 235 -92 235 -29
0 -24 -85 15 -218 11 -38 25 -132 31 -217 l12 -150 -36 -217 c-36 -213 -71
-361 -102 -420 -24 -46 -86 -110 -121 -125 -18 -7 -56 -13 -85 -13 -75 0 -153
40 -381 196 -103 71 -229 156 -280 189 -114 74 -190 148 -223 217 l-25 53 3
-80 c3 -77 5 -84 61 -177 75 -128 75 -138 -9 -113 -27 8 -50 15 -52 15 -1 0
-1 -71 0 -157 l3 -157 96 -31 96 -30 51 -105 c54 -111 110 -205 158 -265 l30
-37 42 55 c35 47 39 57 27 67 -8 7 -15 20 -15 29 0 9 -28 73 -62 141 -35 69
-64 128 -66 131 -1 4 4 9 12 12 11 4 39 -44 109 -188 96 -194 167 -316 215
-368 28 -29 52 -36 52 -13 0 7 -43 97 -96 200 -52 102 -93 186 -90 186 3 0 62
-96 132 -212 132 -220 188 -292 260 -334 61 -36 240 -101 309 -112 142 -24
145 -24 145 -3 0 13 -19 31 -58 55 -158 96 -275 252 -351 469 -44 126 -39 148
12 52 76 -143 150 -245 179 -245 17 0 20 5 15 30 -6 29 -79 165 -148 275 -21
32 -36 61 -34 64 3 2 23 -4 45 -14 38 -17 46 -29 130 -194 102 -199 132 -243
151 -224 17 17 -6 88 -71 221 -27 56 -46 102 -42 102 5 0 36 -42 69 -93 63
-96 208 -257 231 -257 45 0 11 66 -114 222 -37 46 -71 88 -76 94 -6 8 1 15 20
22 28 9 31 7 72 -49 46 -63 142 -159 160 -159 17 0 24 29 12 54 -6 13 -31 48
-56 80 -26 31 -44 56 -41 56 3 0 28 -11 55 -25 27 -14 55 -25 62 -25 8 0 32
-26 56 -57 56 -78 151 -175 165 -170 34 11 2 80 -90 194 l-42 52 33 20 c18 12
39 21 46 21 7 0 39 -27 71 -61 43 -45 64 -60 81 -57 35 5 33 30 -6 82 -42 54
-28 60 33 16 74 -54 115 -135 173 -344 17 -61 37 -124 44 -141 29 -63 141
-246 186 -304 81 -103 105 -71 42 53 l-36 71 48 -45 c27 -25 108 -102 180
-173 84 -81 140 -127 153 -127 12 0 21 6 21 13 0 42 -230 289 -376 403 l-80
63 -54 168 c-80 249 -75 317 21 283 38 -13 44 -21 59 -65 38 -113 104 -213
133 -202 24 9 21 29 -18 114 -19 42 -35 77 -35 79 0 2 11 -1 24 -7 16 -8 26
-23 30 -44 7 -38 118 -210 142 -219 42 -16 44 17 4 96 -17 32 -30 61 -30 63 0
13 50 -21 55 -36 22 -69 210 -309 241 -309 31 0 10 54 -65 166 -44 66 -78 120
-76 122 1 1 32 0 68 -4 l66 -7 49 -76 c63 -98 166 -227 192 -241 29 -16 37 12
17 58 -18 40 -17 39 57 -77 30 -47 98 -125 180 -206 72 -72 187 -190 256 -264
69 -74 156 -158 195 -186 39 -29 77 -60 85 -70 51 -61 384 -339 420 -350 81
-26 -8 81 -245 293 -69 62 -70 63 -35 57 50 -9 157 -61 327 -158 158 -90 407
-217 513 -262 36 -15 67 -29 69 -31 2 -1 -6 -18 -18 -37 -34 -55 -127 -136
-188 -165 -134 -63 -371 -14 -549 113 -107 77 -156 97 -251 103 -77 4 -90 8
-145 44 -39 25 -86 45 -132 55 -73 17 -126 53 -126 88 0 26 -25 12 -28 -16 -3
-29 28 -82 62 -104 14 -9 48 -23 77 -30 29 -8 83 -35 119 -60 62 -43 74 -47
151 -55 101 -9 119 -16 212 -78 100 -68 162 -98 263 -127 80 -23 102 -25 293
-25 l208 0 42 -45 c53 -56 86 -79 106 -71 25 9 17 40 -21 84 -30 35 -33 43
-19 48 11 5 27 -7 53 -37 80 -94 160 -157 181 -144 25 15 8 50 -56 116 -115
120 -52 75 83 -59 121 -119 194 -175 210 -160 20 20 -16 71 -122 174 -102 100
-111 112 -91 118 12 3 25 6 28 6 3 0 27 -26 52 -58 97 -124 265 -282 299 -282
51 0 2 68 -185 259 l-112 113 35 29 c19 16 37 29 40 29 4 0 22 -23 40 -52 43
-67 237 -324 303 -403 113 -134 157 -170 157 -129 0 31 -182 289 -347 491 -45
57 -83 106 -83 109 0 8 57 -5 103 -23 27 -11 44 -27 59 -57 67 -132 567 -829
605 -843 20 -8 26 3 19 31 -10 39 -261 410 -464 685 -62 83 -58 83 48 -4 41
-34 94 -76 118 -93 92 -66 229 -252 328 -444 67 -132 118 -188 269 -295 189
-133 402 -249 422 -230 11 12 -26 43 -150 128 -322 218 -412 300 -482 439 -56
111 -122 212 -201 305 -36 43 -53 70 -47 76 6 6 30 -17 68 -67 88 -117 264
-314 280 -314 29 0 14 43 -41 124 -67 96 -193 256 -242 308 -52 55 -36 66 31
21 44 -29 76 -65 138 -153 45 -63 98 -135 118 -160 105 -132 184 -220 197
-220 31 0 11 49 -68 164 -45 67 -75 116 -67 110 8 -6 43 -33 79 -59 36 -26 69
-54 74 -63 48 -86 309 -402 332 -402 39 0 -9 90 -141 266 -24 32 -42 60 -40
62 11 11 87 -50 125 -101 95 -126 283 -297 327 -297 32 0 6 45 -76 131 -49 52
-88 95 -87 97 2 1 68 -31 147 -72 79 -41 169 -84 199 -96 30 -12 109 -52 175
-90 146 -84 355 -180 390 -180 41 0 29 27 -27 64 -29 18 -117 69 -195 112
l-142 79 37 22 c121 74 192 70 437 -25 381 -148 511 -179 813 -193 235 -11
268 -7 337 41 55 38 195 179 195 196 0 36 -48 11 -183 -93 -82 -63 -114 -73
-236 -73 -82 0 -119 7 -316 60 -283 76 -380 111 -563 206 -181 93 -223 100
-398 64 -183 -38 -266 -22 -393 73 -30 22 -85 55 -123 74 -93 45 -142 93 -273
268 -220 293 -331 368 -541 364 -152 -3 -160 4 -332 291 -105 176 -114 196
-105 243 12 61 113 70 279 27 148 -39 180 -57 266 -142 95 -95 172 -147 277
-187 157 -60 297 -75 591 -61 71 3 93 0 134 -18 l49 -22 98 26 c128 34 145 28
235 -72 48 -54 90 -89 147 -122 44 -25 108 -72 143 -104 47 -42 78 -62 119
-73 73 -22 107 -63 197 -235 72 -139 112 -200 129 -200 16 0 0 47 -67 205 -38
91 -70 182 -79 230 -17 91 -72 274 -87 293 -8 10 -14 10 -25 0 -17 -14 -12
-82 13 -179 18 -72 18 -72 -5 -60 -13 7 -20 26 -24 68 -7 61 -46 241 -72 331
-16 53 -39 69 -52 35 -14 -37 31 -278 72 -386 5 -11 2 -17 -8 -17 -10 0 -21
28 -37 97 -34 151 -99 408 -110 437 -5 14 -16 26 -25 26 -20 0 -20 -67 -1
-175 8 -44 18 -96 21 -115 3 -19 -12 21 -33 90 -22 69 -45 137 -52 153 -14 29
-37 36 -46 13 -10 -25 45 -264 83 -363 5 -12 -5 -10 -44 11 -51 28 -65 40
-146 124 -52 54 -120 85 -212 97 -87 12 -146 41 -205 100 -30 30 -62 55 -71
55 -10 0 -36 -16 -59 -35 -63 -53 -75 -48 -129 51 -43 80 -95 124 -173 149
-113 35 -138 47 -138 64 0 13 16 19 73 28 39 6 175 41 300 77 169 49 237 73
263 94 l34 27 -34 10 c-19 6 -37 13 -40 16 -3 3 26 15 64 28 38 12 72 26 75
31 9 14 -2 13 -120 -16 -108 -26 -156 -26 -121 -1 10 7 15 19 11 28 -6 16
-118 29 -257 29 -90 0 -76 17 20 24 128 10 150 15 158 38 12 39 -7 42 -173 29
-87 -7 -207 -11 -268 -9 l-110 3 165 27 c156 26 412 84 473 107 20 8 27 17 27
36 0 14 -6 28 -14 31 -8 3 -61 -6 -118 -20 -160 -40 -322 -48 -509 -27 -13 2
4 52 20 60 40 21 208 42 356 45 167 3 239 17 259 49 8 12 8 22 0 34 -9 14 -36
16 -207 17 -108 1 -199 5 -202 8 -15 14 18 47 62 64 202 74 208 77 208 109 l0
30 -75 -3 c-74 -3 -77 -3 -155 43 -44 26 -102 68 -130 95 -55 53 -83 70 -114
70 -12 0 -21 5 -21 11 0 6 8 8 18 5 60 -18 164 -29 272 -30 140 -1 200 8 200
29 0 11 -13 13 -63 8 -73 -6 -265 11 -347 32 -53 14 -50 14 70 8 200 -11 195
-11 198 16 2 13 -2 27 -8 31 -7 4 -60 11 -119 16 -92 6 -102 8 -71 17 181 49
203 66 198 161 l-3 61 70 30 c41 18 74 39 79 51 9 19 15 13 58 -53 27 -41 69
-97 95 -124 50 -54 154 -126 218 -151 105 -41 129 -54 166 -90 24 -23 61 -83
98 -156 75 -150 101 -182 147 -182 35 0 94 24 94 38 0 4 -22 25 -50 45 -35 26
-59 55 -81 99 -62 122 -102 157 -319 279 -148 83 -217 151 -285 279 -27 52
-85 148 -127 213 -98 150 -98 150 -37 241 43 64 49 107 24 155 -17 33 -70 81
-90 81 -8 0 -40 -23 -72 -51 -73 -64 -135 -96 -210 -108 -118 -18 -285 30
-299 86 -12 44 20 84 113 142 111 71 143 113 143 191 0 55 -23 154 -41 176 -7
8 8 17 48 30 54 18 58 21 58 49 l0 30 -137 -2 c-125 -1 -137 0 -141 17 -4 14
-16 20 -48 23 -26 2 -10 4 38 5 96 2 136 14 131 40 -3 14 -21 19 -103 27 -59
6 -98 14 -96 20 2 6 6 16 8 23 7 16 -1 62 -23 139 -17 58 -17 64 -1 116 12 39
33 72 77 118 93 100 127 189 74 197 -11 2 -76 -20 -145 -48 -157 -63 -218 -77
-279 -60 l-44 12 24 19 c14 10 77 56 140 101 167 120 210 164 291 300 111 187
225 291 345 314 47 9 77 49 104 136 45 149 116 251 252 366 95 79 141 148 169
250 19 67 25 187 11 209 -11 17 -19 9 -97 -92 -72 -93 -277 -305 -355 -367
l-44 -35 -7 -91 c-5 -73 -12 -100 -33 -136 -28 -47 -87 -94 -160 -126 -66 -30
-93 -56 -150 -144 -60 -92 -127 -162 -204 -214 -49 -33 -67 -38 -200 -58 -81
-12 -148 -21 -150 -19 -1 1 80 50 180 110 101 59 186 113 190 119 13 20 8 45
-10 55 -14 7 -43 0 -116 -30 -54 -21 -101 -39 -104 -39 -3 0 4 10 15 23 11 12
51 71 88 131 55 90 64 111 53 122 -16 16 -73 -3 -196 -65 -89 -45 -122 -47
-122 -8 0 12 9 36 21 52 82 121 89 186 23 223 -13 7 -7 26 41 123 112 222 178
297 340 385 39 20 124 71 189 112 150 94 242 137 344 160 98 23 107 30 309
252 82 91 206 213 275 272 143 123 205 188 268 282 39 58 52 69 100 87 30 12
93 28 140 36 50 9 102 25 128 40 62 37 69 23 38 -71 -47 -138 -136 -290 -226
-386 -24 -25 -55 -62 -71 -83 -15 -21 -72 -86 -127 -145 -207 -224 -272 -302
-272 -326 0 -9 4 -16 8 -16 14 0 113 89 247 221 235 234 346 371 425 529 38
76 90 226 90 260 0 10 18 65 40 122 22 56 53 162 69 234 55 245 113 350 294
529 92 91 136 144 180 215 38 64 91 129 160 200 56 58 127 135 157 171 68 81
138 139 167 139 13 0 30 -11 39 -25 16 -24 15 -27 -12 -68 -15 -23 -55 -73
-88 -112 -124 -142 -156 -200 -118 -213 15 -5 172 152 222 222 25 34 36 43 38
32 2 -9 -11 -31 -29 -49 -35 -35 -129 -176 -129 -193 0 -6 6 -17 14 -23 19
-16 55 15 113 97 28 39 49 60 51 51 1 -8 -16 -35 -38 -59 -45 -48 -94 -144
-86 -166 3 -8 12 -14 20 -14 16 0 74 62 102 108 21 36 34 41 34 14 0 -10 -12
-29 -26 -43 -25 -22 -54 -76 -54 -98 0 -6 9 -15 20 -21 20 -11 32 -2 73 54 13
18 16 15 42 -37 15 -31 44 -76 64 -99 20 -24 50 -72 65 -108 16 -36 46 -100
67 -142 21 -43 52 -119 69 -170 35 -110 52 -139 72 -120 22 21 -23 220 -71
314 -39 75 -39 76 -17 82 27 7 69 77 64 108 -2 13 -11 24 -21 26 -19 4 -38
-16 -68 -71 -13 -25 -17 -27 -28 -13 -10 12 -6 23 27 65 53 66 70 117 48 139
-14 14 -18 12 -51 -22 -20 -21 -44 -54 -54 -75 l-19 -36 -7 30 c-4 17 -8 35
-9 40 -2 6 12 31 30 56 43 60 94 156 94 179 0 31 -27 30 -58 -1 -16 -16 -46
-59 -67 -95 -25 -43 -41 -62 -48 -55 -7 7 7 34 40 83 28 40 67 105 87 145 35
70 38 103 10 103 -17 0 -101 -113 -146 -195 -27 -50 -33 -56 -36 -37 -2 14 5
33 16 45 58 64 192 298 192 337 0 56 -69 -10 -149 -142 -28 -47 -36 -49 -17
-4 15 35 220 372 241 394 9 10 14 2 23 -38 7 -28 21 -63 32 -78 16 -22 21 -49
26 -160 8 -143 21 -185 45 -141 9 16 13 69 13 169 1 134 -1 147 -20 173 -12
15 -30 58 -39 97 -17 68 -16 72 5 172 34 158 103 319 174 403 l26 30 -26 -57
c-25 -58 -25 -78 1 -78 23 0 98 103 152 206 30 58 57 97 71 104 13 6 22 7 20
3 -2 -5 -24 -49 -50 -99 -55 -107 -98 -210 -98 -236 0 -11 7 -18 19 -18 13 0
32 20 58 62 49 79 56 54 14 -47 -34 -80 -39 -130 -16 -138 16 -7 46 26 65 73
7 16 15 30 19 30 3 0 16 -48 27 -107 11 -60 33 -133 47 -163 35 -73 53 -178
39 -216 -6 -16 -20 -54 -31 -84 -50 -132 -10 -127 56 6 l47 94 -11 81 c-11 80
-11 82 17 123 15 22 38 62 51 89 13 26 27 47 31 47 5 0 6 -55 2 -123 -7 -122
-6 -123 24 -192 17 -39 38 -108 46 -155 24 -124 36 -162 49 -157 8 3 12 31 10
91 -1 111 -18 208 -45 260 -19 36 -20 51 -14 147 7 126 -5 206 -36 232 -32 26
-50 18 -78 -38 -14 -28 -26 -52 -27 -53 -1 -2 -26 5 -55 16 l-53 20 -19 83
c-14 64 -19 127 -20 266 l-1 181 40 59 c48 70 93 96 137 81 44 -16 184 -180
208 -246 33 -87 21 -300 -24 -434 -33 -96 -38 -171 -14 -176 12 -2 24 10 39
39 l22 43 24 -47 24 -48 -22 -264 c-21 -257 -21 -295 1 -295 25 0 56 147 74
355 12 137 13 139 25 97 10 -36 9 -56 -4 -120 -9 -42 -19 -143 -22 -224 -5
-133 -4 -148 11 -148 24 0 33 33 54 181 l17 131 19 -51 c14 -40 16 -57 7 -83
-19 -57 -41 -230 -41 -320 0 -72 3 -88 15 -88 9 0 20 11 25 25 9 24 33 147 46
240 l7 50 26 -79 c26 -76 26 -81 15 -165 -7 -47 -13 -87 -13 -89 -1 -1 -18 0
-38 3 -21 3 -51 2 -68 -3 -26 -7 -32 -17 -51 -79 -12 -38 -29 -113 -39 -166
-16 -83 -21 -96 -39 -99 -16 -2 -24 -16 -36 -60 -8 -32 -18 -58 -23 -58 -5 0
-7 10 -4 23 13 51 37 202 37 233 0 39 -18 54 -36 29 -21 -28 -58 -172 -74
-282 0 -2 -10 -3 -21 -3 -19 0 -21 4 -16 33 4 17 15 81 27 141 26 141 27 199
3 194 -23 -4 -53 -97 -87 -260 -14 -66 -28 -123 -31 -126 -10 -10 -35 33 -31
53 2 11 18 73 35 137 17 65 33 147 37 183 6 61 6 65 -14 65 -24 0 -48 -57 -78
-182 -9 -43 -19 -76 -21 -75 -2 2 4 48 12 103 20 131 20 204 0 204 -22 0 -36
-34 -60 -152 -18 -91 -24 -107 -34 -94 -10 12 -10 34 3 113 25 153 25 178 1
178 -24 0 -48 -63 -75 -203 -10 -51 -22 -98 -28 -105 -35 -43 -104 -341 -118
-508 -4 -44 -10 -77 -13 -74 -3 4 -11 33 -18 67 -15 72 -29 94 -51 76 -12 -10
-13 -29 -8 -101 4 -49 10 -103 13 -120 l6 -32 -21 25 c-44 52 -49 -3 -18 -218
12 -79 11 -82 -4 -61 -23 29 -40 17 -40 -29 0 -33 20 -192 35 -282 3 -19 -5
-1 -17 40 -19 61 -27 75 -43 75 -18 0 -20 -6 -18 -60 1 -33 10 -102 19 -153
16 -84 16 -96 2 -125 l-15 -32 -7 35 c-25 123 -65 191 -83 144 -8 -21 11 -168
32 -247 12 -48 13 -63 2 -90 -13 -32 -14 -31 -30 59 -9 51 -26 122 -37 158
-17 54 -25 66 -42 66 -20 0 -21 -4 -15 -72 5 -62 22 -154 54 -302 4 -21 3 -27
-5 -22 -7 4 -12 17 -12 30 0 34 -37 167 -50 180 -8 8 -15 6 -26 -9 -16 -21
-13 -67 12 -195 14 -71 14 -75 -6 -94 -10 -11 -21 -18 -23 -15 -2 2 -13 51
-26 108 -30 137 -62 225 -82 229 -26 5 -30 -23 -14 -111 18 -102 18 -105 2
-82 -49 66 -49 -122 0 -281 14 -47 14 -57 -1 -124 -9 -40 -15 -75 -13 -77 2
-2 31 32 64 74 33 43 89 109 125 148 62 66 67 69 94 60 48 -17 50 -56 8 -187
-19 -62 -53 -174 -74 -248 -36 -124 -38 -135 -23 -152 22 -24 31 -23 39 7 3
13 84 133 179 265 160 224 265 396 265 433 0 23 -18 25 -84 9 -33 -7 -75 -11
-93 -7 -44 8 -76 50 -69 90 9 42 107 237 162 322 63 96 112 114 201 74 83 -38
92 -111 28 -208 -20 -30 -57 -93 -81 -140 -41 -78 -44 -87 -30 -101 14 -14 20
-13 58 15 47 33 134 147 198 260 44 76 49 98 69 318 6 61 20 139 31 173 11 35
20 85 20 110 1 142 71 323 180 460 42 54 89 77 145 70 33 -3 58 -43 70 -109 8
-48 -65 -240 -185 -484 -98 -198 -110 -232 -84 -242 9 -3 20 0 25 8 5 8 38 64
74 124 l65 110 -2 -50 c-6 -104 48 -48 96 102 10 28 24 57 33 65 14 11 16 11
11 -2 -18 -48 -29 -133 -19 -143 25 -25 77 69 122 221 19 64 21 45 3 -38 -16
-79 -14 -100 11 -100 20 0 45 56 84 189 33 115 58 157 47 81 -3 -25 -9 -84
-13 -132 -6 -85 -5 -88 15 -88 24 0 44 53 64 173 11 58 10 75 -4 110 -31 83
-38 103 -54 179 -28 128 -6 205 86 302 26 28 77 87 112 131 37 47 72 81 85 83
14 2 33 -10 57 -34 40 -41 40 -42 25 -81 -18 -48 -59 -251 -59 -293 0 -41 17
-53 38 -27 13 15 56 162 73 249 7 35 14 64 15 66 5 7 101 -48 121 -70 48 -51
55 -90 56 -293 0 -195 -14 -303 -50 -385 -13 -29 -16 -94 -18 -360 -4 -480
-14 -541 -147 -874 -123 -308 -220 -487 -316 -579 l-39 -38 -91 41 c-51 22
-100 40 -109 38 -26 -4 -45 59 -32 106 12 42 15 43 41 14 20 -23 20 -23 -4
-28 -34 -8 -35 -43 -2 -69 28 -22 88 -29 99 -11 3 6 19 10 35 10 46 0 60 10
60 41 0 24 -8 32 -69 64 -38 20 -79 47 -91 60 -21 22 -22 27 -10 75 7 31 10
74 6 106 -6 55 -75 274 -85 274 -3 0 -31 -46 -61 -101 -30 -56 -65 -119 -77
-141 -13 -22 -26 -63 -29 -90 -6 -46 -11 -53 -71 -101 -52 -42 -63 -56 -61
-76 2 -20 11 -28 41 -36 l38 -11 -26 -24 c-44 -41 -28 -89 29 -91 29 -1 27 -3
-24 -26 -61 -27 -72 -39 -66 -66 3 -10 -5 -34 -16 -53 l-20 -35 20 -49 21 -49
-52 -19 c-29 -11 -62 -22 -74 -26 -26 -8 -37 -34 -23 -51 6 -7 41 -19 77 -25
l67 -13 -57 -29 c-50 -25 -57 -32 -57 -58 0 -24 5 -31 27 -36 25 -7 26 -8 6
-15 -11 -4 -60 -15 -107 -25 -77 -15 -87 -20 -92 -41 -4 -15 -1 -30 7 -38 15
-15 118 -34 189 -36 l45 0 -45 -22 c-39 -20 -45 -27 -45 -54 0 -31 -2 -33 -75
-55 -60 -19 -76 -28 -78 -45 -3 -18 4 -23 51 -33 44 -9 62 -8 96 3 40 14 41
14 41 -9 0 -20 -7 -24 -47 -30 -59 -10 -115 -9 -169 1 -60 11 -79 -11 -68 -79
18 -111 1 -174 -74 -284 -22 -31 -69 -103 -105 -159 -36 -56 -107 -157 -158
-225 -122 -163 -133 -188 -127 -295 4 -82 4 -85 -21 -98 -14 -7 -42 -17 -61
-22 l-35 -10 3 93 c3 80 2 95 -13 100 -24 10 -33 -5 -46 -71 -18 -91 -29 -88
-23 6 5 66 3 88 -9 104 -12 16 -18 17 -28 8 -13 -13 -38 -129 -39 -180 0 -22
-7 -36 -21 -44 -21 -11 -21 -10 -15 32 22 155 33 431 20 498 -7 33 -28 41 -38
15 -10 -25 -35 -305 -42 -471 -5 -115 -11 -154 -23 -169 -9 -10 -49 -38 -89
-61 l-73 -42 6 54 c4 29 4 76 0 105 -6 45 -10 51 -28 48 -25 -4 -33 -32 -43
-165 -6 -90 -8 -93 -40 -118 l-33 -25 0 95 c1 93 -4 115 -21 115 -19 0 -30
-42 -51 -194 -20 -143 -25 -160 -58 -211 -19 -30 -36 -53 -37 -52 -2 1 1 34 6
72 13 99 12 252 -1 261 -18 11 -30 -11 -45 -81 -15 -73 -35 -301 -27 -321 2
-6 0 -15 -6 -19 -13 -8 -13 -1 -1 145 10 122 6 160 -16 160 -26 0 -51 -110
-64 -278 l-7 -97 -2 100 c-1 104 -9 132 -34 122 -22 -8 -27 -46 -34 -223 -5
-148 -4 -164 13 -188 11 -14 22 -26 25 -26 3 0 19 24 34 53 45 83 84 136 166
224 44 48 92 112 114 154 45 87 90 131 215 215 114 75 206 120 355 169 60 20
126 45 147 56 35 18 37 18 31 2 -18 -50 -87 -138 -196 -253 -67 -70 -137 -152
-155 -182 -63 -106 -49 -180 15 -80 17 26 86 101 153 167 145 143 209 229 246
333 15 42 38 95 50 117 12 22 42 99 65 170 26 82 70 185 119 280 43 83 106
212 141 288 35 75 67 137 70 137 9 0 123 -129 118 -134 -2 -1 -34 -8 -72 -15
-97 -17 -117 -26 -117 -55 0 -19 10 -28 48 -44 26 -11 61 -23 77 -27 70 -16
69 -15 46 -32 -27 -18 -27 -48 -1 -66 19 -13 10 -17 -110 -47 -157 -39 -193
-62 -188 -119 3 -36 3 -36 48 -34 63 2 239 -18 245 -27 10 -16 -60 -32 -255
-58 -46 -6 -55 -11 -58 -29 -4 -29 52 -64 148 -94 60 -18 87 -21 164 -16 50 3
101 9 114 13 13 3 22 2 22 -4 0 -12 -114 -48 -219 -69 -42 -8 -129 -15 -193
-16 -124 -3 -142 -9 -136 -48 5 -35 76 -67 178 -80 80 -10 88 -14 128 -52 23
-23 42 -45 42 -49 0 -4 -30 -8 -67 -8 -108 0 -347 -22 -360 -32 -7 -6 -13 -16
-13 -22 1 -33 22 -41 147 -57 l128 -15 -98 -8 c-54 -5 -118 -6 -143 -3 -31 3
-44 1 -44 -8 0 -21 25 -35 74 -41 46 -7 48 -9 70 -58 13 -29 37 -64 55 -78 22
-19 28 -29 19 -35 -7 -4 -72 -8 -144 -9 -73 -1 -137 -5 -143 -8 -37 -23 10
-61 120 -96 39 -12 69 -23 67 -24 -2 -1 -72 2 -156 7 -84 5 -159 6 -167 3 -8
-3 -15 -17 -15 -31 0 -21 9 -30 53 -50 28 -14 57 -25 64 -25 16 0 29 -25 38
-75 4 -22 18 -66 31 -97 13 -32 24 -60 24 -63 0 -3 -26 -5 -57 -6 -79 -1 -107
-11 -111 -36 -3 -18 9 -26 75 -51 43 -17 112 -41 153 -54 l75 -23 -110 -5
c-60 -3 -116 -9 -122 -13 -17 -10 -17 -52 0 -65 13 -11 189 -46 302 -59 l70
-8 -135 -23 c-74 -12 -180 -27 -235 -33 -106 -12 -131 -24 -121 -57 5 -14 21
-22 65 -31 l58 -11 -1 -53 c-1 -28 3 -84 7 -123 l8 -71 -160 -8 c-164 -7 -179
-12 -165 -50 10 -25 162 -74 233 -75 43 0 33 -11 -27 -30 -36 -12 -48 -20 -50
-39 -5 -32 10 -44 60 -50 42 -6 43 -7 39 -41 -4 -41 -10 -46 -64 -54 -60 -10
-79 -23 -75 -54 3 -23 10 -28 57 -39 30 -6 123 -20 205 -30 l151 -18 -135 -3
c-162 -3 -253 10 -327 49 -57 30 -73 30 -73 -1 0 -22 52 -69 142 -127 83 -53
123 -72 208 -93 l65 -16 -74 -20 c-41 -11 -85 -19 -96 -16 -12 2 -86 66 -165
143 -79 76 -146 139 -150 139 -11 0 7 -108 41 -234 25 -97 62 -195 96 -257 2
-4 -33 -12 -79 -18 -46 -7 -97 -14 -115 -17 -32 -6 -46 -24 -37 -48 7 -19 103
-64 171 -80 63 -14 63 -14 -40 -32 -43 -7 -63 -34 -48 -63 8 -15 27 -20 96
-26 47 -4 85 -10 85 -14 0 -4 -16 -26 -36 -49 -45 -53 -114 -94 -159 -95 -99
-3 -140 124 -236 721 -13 78 -26 142 -29 142 -13 0 -42 -96 -66 -217 -29 -154
-46 -208 -76 -240 -28 -30 -42 -29 -149 13 -50 19 -93 33 -95 31 -10 -10 205
-403 230 -421 23 -17 30 -18 59 -8 57 20 108 14 183 -22 74 -35 114 -74 114
-110 0 -11 -12 -57 -25 -101 -47 -148 -70 -335 -42 -335 6 0 84 131 172 290
88 160 170 303 182 318 l21 27 164 3 c122 3 160 1 152 -8 -19 -19 -155 -61
-239 -72 -89 -13 -107 -22 -103 -52 4 -27 33 -34 146 -35 50 -1 92 -5 92 -10
0 -5 -20 -42 -45 -82 -46 -75 -102 -207 -160 -380 -79 -233 -163 -358 -403
-598 -101 -101 -209 -218 -241 -260 -111 -145 -194 -203 -268 -185 -15 4 -59
22 -97 41 -110 55 -116 52 -234 -125 -54 -81 -124 -188 -155 -238 l-57 -91
-89 -41 c-117 -53 -144 -60 -289 -71 -127 -10 -190 -32 -216 -73 -16 -27 1
-33 52 -19 26 7 113 16 195 20 l147 7 93 46 c50 26 108 49 127 52 68 11 153
99 240 247 22 36 57 82 80 102 48 44 83 47 192 17 110 -30 153 -27 226 18 95
57 203 145 294 241 106 110 167 189 246 321 l63 105 -3 -65 c-3 -59 -1 -65 17
-65 15 0 25 14 42 60 20 54 22 57 22 27 1 -29 4 -33 23 -30 19 2 28 19 54 103
l32 100 1 -77 c1 -71 3 -78 21 -78 20 0 24 10 55 144 16 67 19 71 182 258 157
179 173 194 287 270 173 116 233 163 303 237 81 86 89 78 58 -60 -40 -177 -37
-172 -265 -601 -106 -201 -153 -248 -305 -307 -105 -40 -202 -104 -355 -232
-69 -57 -137 -113 -151 -124 -15 -12 -33 -34 -42 -50 -18 -35 -149 -156 -220
-203 -27 -18 -58 -44 -69 -57 -27 -35 -65 -52 -138 -64 -75 -12 -124 -39 -128
-70 -3 -21 -1 -23 20 -17 12 4 64 12 113 17 91 10 166 41 178 72 3 8 36 35 74
60 38 25 89 68 112 96 29 34 50 51 66 51 12 0 42 7 65 15 57 20 74 19 105 -8
l26 -22 -34 -80 c-19 -44 -37 -102 -41 -130 -7 -44 -16 -57 -78 -119 -112
-112 -190 -228 -173 -257 7 -10 285 263 303 298 7 12 12 32 12 45 0 49 78 248
114 291 85 102 299 307 319 307 4 0 75 45 158 100 84 55 163 100 175 100 22 0
54 -23 54 -39 0 -4 -9 -43 -21 -87 -23 -89 -22 -178 6 -339 20 -113 34 -157
48 -152 19 6 20 51 7 232 l-13 170 32 113 c17 62 40 130 50 150 l19 37 7 -40
c29 -182 46 -239 68 -232 19 6 20 71 2 247 -11 108 -13 174 -7 190 8 21 10 13
16 -45 15 -142 35 -197 63 -173 13 10 14 38 8 174 -8 185 3 239 21 96 12 -95
25 -125 50 -115 9 3 14 22 15 57 l1 51 12 -34 c14 -38 34 -51 47 -30 5 8 9 58
9 111 0 58 4 99 11 103 16 10 19 3 36 -76 17 -85 28 -109 49 -109 26 0 28 30
11 164 -18 140 -14 206 18 282 35 83 85 109 241 124 160 14 199 27 534 183
165 77 205 92 257 95 72 5 116 -8 181 -52 35 -25 74 -39 152 -56 58 -12 107
-24 109 -26 4 -3 -25 -96 -45 -144 -9 -22 -32 -46 -60 -64 -61 -38 -105 -95
-154 -199 -23 -48 -49 -91 -58 -96 -10 -5 -39 -12 -67 -16 -70 -10 -129 -41
-195 -102 -68 -62 -133 -154 -128 -178 2 -13 23 2 84 61 44 44 91 85 105 93
72 43 118 61 157 61 80 0 109 29 176 180 17 38 66 94 138 154 49 42 68 72 68
111 0 13 4 26 9 29 4 3 11 20 15 37 3 18 26 66 49 108 24 42 50 92 57 111 17
45 99 210 104 210 2 0 -9 -41 -25 -90 -32 -99 -38 -160 -15 -160 8 0 23 20 34
44 40 84 172 398 172 408 0 6 43 53 96 106 104 104 148 159 212 267 64 108
117 173 274 335 80 82 156 163 168 180 l22 31 -84 -7 c-53 -4 -105 -2 -142 6
-52 11 -59 15 -72 46 -19 44 -18 68 4 87 15 14 36 15 153 9 138 -8 139 -8 205
-57 19 -14 148 11 214 41 30 14 72 38 93 55 53 43 98 59 141 52 87 -14 158 42
254 203 63 105 91 129 149 129 32 0 49 -6 68 -26 l26 -26 -53 -98 c-59 -110
-106 -163 -220 -248 -42 -32 -98 -80 -123 -106 -45 -47 -195 -249 -195 -263 0
-5 8 -8 18 -8 19 0 83 64 175 173 26 31 93 89 149 128 138 99 182 147 256 283
103 189 180 269 330 341 74 36 77 38 265 240 l47 50 -21 -60 c-27 -80 -38
-190 -18 -183 23 7 54 74 114 243 47 134 88 215 101 202 2 -2 -15 -54 -37
-117 -44 -126 -81 -268 -73 -282 20 -32 48 10 104 155 l28 72 -1 -50 c-3 -72
20 -66 60 15 l32 65 -2 -40 c-2 -30 2 -40 16 -43 21 -4 52 60 105 225 26 80
42 115 55 119 10 3 20 4 22 2 2 -2 -12 -49 -31 -105 -19 -56 -38 -125 -41
-153 -5 -46 -4 -50 15 -50 16 0 28 18 57 88 20 48 48 127 63 176 25 81 30 90
65 107 20 11 37 17 37 14 0 -3 -9 -23 -20 -45 -11 -21 -31 -77 -45 -124 -30
-107 -36 -117 -100 -191 -87 -100 -121 -155 -199 -316 -85 -177 -94 -199 -73
-199 14 0 78 93 143 205 16 28 34 59 41 70 7 11 15 27 19 35 10 20 68 93 127
159 60 68 83 112 108 212 21 83 55 170 82 204 15 18 15 15 1 -35 -17 -65 -30
-201 -20 -225 14 -38 35 12 91 210 55 194 59 206 92 231 31 23 34 24 29 7 -12
-38 -56 -238 -56 -256 0 -10 7 -20 16 -24 20 -7 31 10 61 92 l21 60 1 -47 c1
-58 25 -66 46 -15 19 46 61 215 79 316 12 70 19 88 47 117 18 18 34 33 35 31
1 -1 -9 -36 -22 -77 -29 -88 -57 -253 -49 -281 9 -27 34 -23 45 7 6 15 33 110
60 212 27 102 55 189 62 193 32 21 33 4 6 -103 -16 -61 -31 -142 -35 -180 -5
-59 -4 -68 10 -68 20 0 39 35 61 115 9 33 21 74 27 91 5 17 9 39 9 49 0 11 6
44 13 74 11 53 19 62 188 231 259 258 272 286 267 609 -2 140 -7 206 -14 208
-12 4 -122 -299 -144 -397 -29 -132 -138 -296 -278 -422 -47 -42 -92 -51 -92
-19 0 20 -25 51 -40 51 -5 0 -16 -12 -24 -27 l-15 -28 -1 41 c0 82 -48 81 -69
-1 -6 -25 -13 -45 -16 -45 -3 0 -2 33 1 74 7 78 -4 102 -33 73 -17 -17 -53
-138 -53 -177 0 -27 -38 -87 -101 -156 -20 -22 -57 -72 -82 -110 -61 -91 -145
-176 -203 -203 -61 -29 -176 -57 -345 -86 -234 -39 -311 -91 -393 -267 -23
-51 -57 -115 -74 -143 l-32 -50 0 35 c0 73 -21 307 -30 340 -12 43 -54 85 -95
94 -41 10 -61 30 -105 107 -54 91 -108 137 -246 207 -65 34 -139 79 -163 101
-50 45 -65 45 -49 -1 17 -49 84 -108 192 -168 127 -71 165 -105 205 -180 48
-90 85 -128 138 -142 33 -8 47 -17 55 -37 11 -28 32 -200 43 -348 l7 -91 -48
-52 c-85 -91 -140 -115 -384 -166 -110 -22 -193 -34 -248 -34 -46 0 -92 -5
-103 -11 -11 -6 -40 -52 -63 -102 -56 -120 -83 -150 -175 -196 -75 -38 -77
-38 -144 -29 -114 15 -121 23 -40 41 110 25 145 42 141 69 -2 17 -13 25 -41
32 l-37 10 46 41 c43 37 45 42 31 56 -14 14 -14 18 4 33 12 10 19 26 17 39 -3
19 -15 24 -103 43 -88 18 -96 21 -66 27 18 4 46 7 61 7 15 0 33 7 40 15 20 24
2 51 -48 70 -26 10 -63 25 -82 33 -34 15 -35 15 -10 22 18 4 26 14 28 32 4 30
-19 46 -100 68 -43 11 -46 14 -37 32 9 17 18 19 67 14 59 -7 75 -2 84 24 10
30 -13 49 -86 70 -65 20 -75 26 -78 48 -3 21 -15 30 -93 59 -100 38 -118 49
-63 39 31 -6 39 -3 47 13 15 27 7 43 -39 71 -22 14 -40 27 -40 30 0 17 34 50
51 50 32 0 59 19 59 40 0 14 -23 33 -77 65 -80 47 -79 60 2 25 63 -27 85 -26
85 3 0 28 -15 36 -155 83 -55 18 -127 45 -160 59 -55 25 -58 28 -41 41 11 7
34 16 53 19 18 3 48 7 67 10 51 8 86 40 86 79 0 25 -10 42 -45 76 -26 26 -45
53 -45 66 0 15 -16 34 -50 59 -28 21 -49 39 -47 41 2 2 27 -6 56 -17 58 -22
85 -18 102 12 16 31 3 51 -64 96 -34 23 -89 69 -123 101 l-61 60 -6 73 c-7 85
-45 242 -77 317 -18 42 -27 52 -46 52 -30 0 -47 -27 -83 -131 -16 -46 -45
-115 -65 -154 -25 -48 -36 -83 -36 -113 0 -40 -3 -45 -56 -85 -106 -79 -110
-84 -98 -104 6 -9 22 -20 35 -24 22 -6 21 -7 -18 -23 -23 -10 -44 -24 -47 -33
-7 -17 10 -53 24 -53 24 0 7 -19 -29 -33 -41 -17 -81 -59 -81 -86 0 -41 35
-66 123 -86 40 -8 21 -29 -46 -51 -64 -20 -61 -18 -48 -42 9 -17 6 -26 -14
-50 -48 -57 -28 -82 67 -82 37 0 68 -4 68 -8 0 -5 -64 -25 -142 -46 -170 -46
-178 -49 -178 -82 0 -31 37 -48 125 -59 51 -6 57 -9 42 -20 -9 -7 -17 -18 -17
-25 0 -22 78 -4 157 37 l74 38 19 -25 c11 -14 20 -28 20 -31 0 -4 -26 -16 -57
-28 -108 -40 -198 -61 -260 -61 -46 0 -63 -4 -63 -13 0 -8 -20 -17 -52 -23
l-53 -9 3 -55 c2 -30 7 -58 11 -63 4 -4 31 -2 61 5 l53 12 28 -34 c35 -41 36
-41 -93 -69 -62 -14 -98 -28 -102 -38 -10 -24 2 -33 45 -33 39 0 47 -7 30 -26
-5 -5 -11 -24 -13 -43 -3 -30 -8 -35 -56 -53 -56 -21 -72 -40 -55 -67 5 -9 7
-25 3 -36 -10 -28 -1 -45 29 -56 l26 -10 -32 -15 c-37 -19 -79 -61 -69 -71 4
-4 27 0 51 9 25 10 45 13 45 8 0 -4 -13 -37 -30 -72 -16 -34 -30 -68 -30 -75
0 -7 -28 -21 -62 -31 -59 -17 -63 -20 -63 -47 0 -38 26 -51 131 -66 71 -11
102 -26 104 -50 0 -3 -26 -11 -57 -18 -95 -20 -94 -20 -91 -49 3 -23 10 -28
48 -36 38 -8 41 -10 21 -15 -33 -9 -49 -36 -35 -58 15 -23 53 -32 169 -40 87
-5 103 -9 121 -29 36 -38 96 -48 197 -34 49 6 90 10 92 8 3 -2 -4 -18 -15 -35
-15 -25 -29 -33 -72 -43 -96 -21 -262 -39 -343 -38 -106 1 -132 -12 -174 -94
-45 -85 -117 -184 -155 -212 -70 -53 -156 -52 -217 2 l-30 27 28 52 c34 64 29
76 -48 116 -70 37 -83 50 -74 76 4 12 75 73 158 136 166 123 192 148 230 215
24 44 26 70 5 70 -6 0 -40 -22 -77 -49 -36 -26 -76 -53 -88 -60 -38 -20 -90
-13 -149 20 -70 40 -133 38 -190 -6 -47 -36 -149 -68 -173 -56 -65 35 -31 78
91 115 46 14 93 33 106 41 38 27 55 72 49 132 -5 48 -4 53 14 53 10 0 19 4 19
9 0 12 -36 21 -90 22 l-45 0 33 16 c25 13 32 23 32 44 0 38 -28 51 -111 53
-38 0 -69 4 -69 8 0 3 12 21 26 38 31 36 80 62 148 79 100 25 133 63 120 140
-14 82 -37 93 -149 66 -43 -10 -61 -11 -66 -3 -4 7 -43 12 -96 13 -65 1 -108
8 -163 27 -41 14 -68 28 -60 30 8 3 119 19 245 34 l230 29 0 35 c0 35 0 35
-45 34 -25 0 -120 -6 -211 -14 -132 -10 -190 -11 -282 -1 -64 6 -126 15 -138
20 -25 9 -20 10 221 36 195 22 204 24 255 57 41 28 95 98 95 126 0 26 -78 33
-228 21 -127 -9 -153 -9 -187 4 l-40 16 35 0 c20 1 41 6 47 12 6 6 91 14 204
19 166 8 195 11 206 26 17 23 16 29 -3 48 -12 13 -39 16 -127 16 -113 0 -219
12 -292 31 l-39 11 49 17 c36 12 54 26 65 47 8 16 19 32 23 35 5 4 4 15 -2 25
-10 19 -41 154 -41 180 0 9 19 14 68 16 59 3 67 5 70 24 2 11 -3 26 -10 32 -8
6 -82 19 -165 29 l-152 17 34 32 c19 17 35 41 35 53 0 17 6 21 35 21 80 0 186
38 160 57 -6 5 -16 20 -22 35 -10 23 -23 29 -90 43 -86 19 -103 33 -103 81 0
32 1 33 38 27 20 -3 69 -16 107 -30 90 -32 100 -32 100 -8 0 14 -17 28 -60 50
-58 30 -60 32 -57 68 3 32 -1 39 -30 57 -42 25 -32 25 33 0 39 -16 54 -18 65
-9 37 31 7 60 -95 94 l-80 26 25 36 c13 20 24 41 24 48 0 9 27 11 103 7 93 -4
101 -3 87 12 -9 8 -52 23 -97 33 -74 15 -80 18 -69 35 18 29 -3 49 -79 77 -81
30 -72 37 26 22 77 -12 99 -6 99 30 0 22 -32 44 -78 54 -47 10 -32 21 38 29
58 7 60 8 60 36 0 28 -2 30 -80 46 l-80 17 0 64 c0 63 0 63 29 63 16 0 36 3
45 6 20 8 21 43 1 50 -14 6 -14 8 1 18 41 30 -19 75 -144 106 l-43 11 34 42
c47 57 69 104 62 128 -4 11 -7 40 -7 64 0 70 30 108 116 149 121 57 180 123
207 231 9 37 61 122 192 319 99 148 193 284 209 302 37 41 91 60 131 45 16 -6
26 -14 24 -18 -3 -5 -22 -62 -42 -128 -51 -163 -100 -272 -171 -385 -131 -206
-257 -445 -285 -540 -7 -25 -28 -66 -46 -91 -48 -67 -60 -106 -39 -127 14 -15
18 -14 44 11 16 16 39 51 52 80 52 116 105 214 144 262 23 27 70 97 106 155
112 184 155 243 250 343 127 134 188 163 229 112 27 -36 41 -109 41 -223 1
-100 8 -167 35 -312 9 -49 13 -103 9 -128 -8 -53 -57 -115 -156 -198 -90 -75
-128 -124 -200 -261 -32 -60 -73 -133 -93 -163 -39 -61 -42 -70 -19 -70 43 0
83 50 218 272 28 46 75 104 120 145 41 38 86 87 100 108 15 21 61 71 104 109
42 39 126 117 186 174 61 57 127 112 148 123 93 48 169 4 253 -146 34 -60 199
-331 221 -362 16 -22 15 -22 -23 -16 -21 3 -91 21 -156 39 -132 38 -165 41
-206 19 -32 -16 -111 -110 -111 -131 0 -21 14 -17 66 21 87 63 87 63 173 33
167 -59 191 -62 421 -63 l215 -1 99 -67 c136 -92 308 -187 338 -187 14 0 39 5
56 11 27 9 39 7 74 -10 68 -33 157 -118 184 -175 22 -48 68 -105 97 -123 7 -4
33 -37 59 -73 100 -142 178 -207 178 -148 0 11 -22 54 -50 95 -47 69 -50 79
-60 166 -6 50 -26 224 -46 386 -19 162 -32 296 -29 299 3 3 21 -10 40 -28 24
-23 35 -43 35 -62 0 -86 92 -620 119 -690 12 -33 27 -36 36 -9 10 34 -71 621
-92 654 -9 15 14 6 30 -11 11 -11 17 -36 17 -63 0 -57 43 -347 76 -514 35
-179 54 -245 70 -245 8 0 15 6 15 13 7 62 -26 313 -71 545 -17 84 -30 155 -30
159 0 3 17 -18 38 -48 36 -52 39 -60 56 -199 31 -258 93 -576 136 -697 26 -74
55 -103 160 -160 74 -40 121 -55 375 -119 160 -40 312 -79 339 -88 55 -17 66
-14 66 14 0 14 -20 30 -70 55 -75 38 -129 54 -285 86 -169 34 -284 67 -372
109 -47 22 -89 38 -93 35 -13 -8 -47 40 -63 90 -9 28 -43 196 -77 375 -33 179
-63 338 -67 355 l-6 29 39 -29 c22 -15 40 -29 41 -30 1 0 9 -46 17 -101 25
-162 73 -385 98 -446 6 -16 17 -28 26 -28 13 0 14 13 9 88 -5 72 -50 323 -73
410 -4 12 -2 22 2 22 5 0 21 -62 36 -138 34 -175 86 -336 111 -340 14 -3 17 4
17 37 0 42 -44 263 -61 308 -17 46 -3 35 54 -39 52 -69 56 -78 66 -156 15
-117 60 -312 77 -340 8 -12 19 -20 24 -17 15 10 11 120 -9 230 l-18 100 46
-53 c50 -56 71 -65 71 -29 0 62 -282 436 -405 538 -11 9 -36 42 -55 73 -19 31
-100 121 -185 205 -236 233 -265 256 -421 334 -139 70 -149 85 -218 330 -64
225 -80 267 -121 315 -34 40 -72 61 -148 78 -79 19 -126 45 -172 95 -36 41
-96 155 -110 212 -4 16 -22 43 -39 62 l-32 34 29 12 c20 9 71 10 178 6 169 -8
223 0 315 45 81 39 153 104 210 189 44 67 94 123 102 115 2 -2 -14 -39 -36
-82 -21 -44 -52 -112 -68 -153 -27 -69 -38 -83 -157 -200 -118 -115 -141 -148
-111 -158 14 -5 192 128 247 183 22 22 45 50 52 64 15 29 85 237 85 252 0 6
57 69 128 140 70 71 129 131 131 134 5 5 -19 34 -29 34 -5 0 -22 -11 -38 -25
-46 -38 -51 -30 -8 14 l39 39 24 -28 c13 -16 32 -32 43 -35 10 -3 22 -16 26
-28 3 -12 29 -61 56 -109 44 -76 51 -98 59 -168 12 -103 25 -135 87 -203 48
-52 59 -76 80 -166 11 -47 29 -50 38 -6 14 77 -13 165 -72 230 -45 51 -53 68
-59 130 -10 100 -25 142 -81 222 -57 81 -62 93 -41 93 6 0 27 -30 46 -67 19
-36 58 -91 87 -122 l52 -56 80 0 c77 0 79 -1 66 -20 -14 -19 -10 -21 68 -47
54 -19 85 -25 93 -18 8 7 24 -6 54 -43 140 -172 290 -310 233 -213 -24 40
-140 193 -191 252 -20 23 -55 64 -79 92 -52 63 -98 86 -149 78 -114 -18 -120
-18 -151 -2 -46 24 -133 162 -144 230 -5 33 -34 43 -67 23 -42 -25 -56 -22
-97 23 -55 59 -71 55 -164 -42 -44 -46 -80 -86 -80 -90 0 -4 -33 -34 -74 -67
-52 -42 -91 -86 -130 -145 -78 -119 -172 -191 -283 -217 -26 -6 -115 -12 -198
-13 -136 -1 -154 -3 -195 -25 -25 -13 -53 -30 -63 -39 -26 -23 -161 -22 -207
2 -63 33 -99 65 -146 134 -76 108 -100 123 -213 137 -65 7 -126 48 -162 106
-57 95 -124 183 -240 315 -252 286 -322 377 -395 514 -33 61 -76 164 -95 225
-6 22 -15 51 -19 65 -5 14 -13 52 -19 85 -29 167 -34 193 -48 235 -46 138
-141 272 -273 384 -108 92 -155 148 -288 343 -57 83 -123 174 -148 203 -24 28
-85 111 -134 184 -184 270 -242 310 -369 255 -45 -19 -51 -19 -84 -6 -23 10
-49 35 -75 74 -63 91 -181 203 -355 338 -98 76 -131 83 -175 37z m682 -668 c8
-3 12 -12 10 -19 -3 -8 -14 -85 -23 -172 l-18 -158 -15 37 c-15 33 -15 45 3
145 10 59 19 123 19 141 0 34 1 35 24 26z m-99 -74 l-13 -55 -1 46 c-1 25 4
50 11 57 17 17 18 12 3 -48z m174 -92 c0 -13 -7 -63 -14 -113 -9 -68 -13 -79
-14 -45 -1 69 11 180 20 180 5 0 9 -10 8 -22z m90 -37 c11 -7 10 -33 -8 -152
-11 -79 -23 -180 -26 -224 -3 -44 -9 -91 -12 -105 -5 -24 -6 -24 -18 10 -10
28 -9 54 1 130 8 52 17 152 20 223 7 126 11 138 43 118z m99 -74 l22 -23 -20
-134 c-10 -74 -26 -204 -35 -289 -8 -85 -17 -156 -19 -158 -2 -2 -14 10 -26
27 l-23 32 22 147 c12 80 27 208 33 284 6 75 15 137 18 137 4 0 16 -10 28 -23z
m106 -146 c-14 -34 -23 -92 -39 -246 -9 -88 -19 -190 -23 -227 -6 -53 -10 -66
-21 -59 -11 7 -10 29 3 132 8 68 21 189 27 269 6 80 13 156 16 170 l5 25 19
-24 c12 -14 17 -31 13 -40z m-328 -59 c-11 -10 -12 3 -7 58 l6 55 3 -54 c2
-29 1 -56 -2 -59z m395 -175 c-5 -51 -13 -156 -17 -234 l-7 -141 -24 11 c-22
10 -24 15 -19 51 8 57 24 239 32 376 l7 115 19 -43 c17 -38 18 -53 9 -135z
m99 -33 c-6 -43 -13 -150 -17 -236 -3 -87 -9 -158 -12 -158 -29 1 -32 19 -21
145 5 70 10 172 10 226 0 94 1 98 23 101 12 2 23 3 24 3 2 -1 -2 -37 -7 -81z
m100 42 c9 -12 10 -22 1 -43 -13 -33 -31 -232 -31 -351 0 -63 -3 -83 -12 -79
-10 3 -12 35 -8 133 3 71 5 184 5 251 0 107 2 120 16 113 9 -5 21 -16 29 -24z
m89 -141 c-5 -22 -12 -113 -16 -202 -6 -153 -7 -163 -25 -163 -17 0 -19 5 -13
39 4 22 7 126 7 231 l1 191 28 -28 c26 -26 27 -31 18 -68z m-3629 41 c0 -7 13
-54 30 -103 37 -112 34 -121 -59 -254 -112 -159 -122 -178 -131 -271 -7 -72
-15 -96 -59 -182 -50 -97 -62 -136 -41 -136 15 0 50 43 101 126 l46 74 24 -38
c25 -39 62 -54 72 -28 10 25 -12 83 -43 116 -24 25 -30 41 -30 74 l1 41 23
-45 c44 -83 96 -105 96 -41 0 35 -59 117 -83 115 -21 -2 -21 5 -1 31 13 17 16
18 24 5 5 -8 10 -19 10 -24 0 -5 11 -24 26 -43 31 -41 64 -45 64 -6 l0 27 20
-22 c24 -26 50 -19 50 14 0 13 -20 63 -45 110 -28 53 -42 91 -37 96 6 6 14 -4
21 -24 22 -64 94 -178 112 -178 25 0 28 18 13 70 -7 24 -12 45 -11 46 1 2 25
-34 52 -79 58 -95 91 -115 83 -49 -7 50 -95 229 -165 336 -29 44 -53 86 -53
93 0 7 -16 45 -35 83 -19 38 -35 71 -35 74 0 2 9 2 20 -1 13 -3 29 -25 42 -57
50 -118 191 -374 261 -473 l30 -43 -36 -74 c-26 -52 -64 -103 -130 -173 -54
-58 -130 -156 -184 -239 -130 -197 -145 -217 -181 -239 -134 -82 -296 -230
-464 -423 -55 -64 -182 -172 -203 -172 -3 0 -39 26 -78 59 -91 74 -337 266
-399 310 l-46 33 40 86 c21 48 52 109 68 137 28 47 45 70 147 194 31 38 44 65
53 109 36 192 74 266 205 398 97 98 220 193 496 382 263 182 319 213 319 178z
m3711 -63 c11 -15 13 -53 9 -204 l-5 -186 -24 9 c-23 8 -24 11 -17 85 3 42 6
129 6 195 0 65 4 118 8 118 5 0 15 -8 23 -17z m-3474 -55 c13 -12 23 -26 23
-32 0 -13 91 -173 141 -249 36 -54 38 -60 26 -84 -14 -25 -15 -22 -75 98 -33
68 -81 161 -107 207 -47 84 -49 99 -8 60z m3576 -67 c-4 -9 -10 -80 -13 -158
-3 -100 -8 -140 -16 -135 -8 5 -8 52 -1 169 9 135 13 161 24 151 9 -7 11 -17
6 -27z m-3257 -68 l55 -46 -32 -20 -32 -21 -48 51 c-27 29 -49 56 -49 62 0 8
17 16 43 20 5 0 33 -20 63 -46z m3326 30 c12 -14 17 -51 20 -165 2 -82 2 -148
-1 -148 -22 1 -29 28 -35 144 -4 71 -10 142 -13 158 -6 32 6 36 29 11z m-3752
-93 c27 -53 25 -61 -5 -20 -23 31 -33 60 -20 60 2 0 14 -18 25 -40z m353 -18
c18 -19 25 -35 21 -46 -10 -25 -22 -16 -56 43 -25 43 -27 51 -12 43 10 -6 32
-23 47 -40z m3503 -17 c21 -33 33 -240 12 -233 -8 3 -16 29 -20 69 -9 86 -15
189 -11 189 1 0 10 -11 19 -25z m-1009 -32 c-3 -16 -9 -56 -13 -90 -10 -91
-27 -68 -19 26 8 82 11 91 27 91 6 0 8 -11 5 -27z m-6231 -32 c23 -18 24 -23
27 -179 1 -88 -1 -158 -4 -156 -4 2 -18 33 -33 68 -23 58 -24 70 -16 123 13
79 12 137 -2 151 -19 19 1 14 28 -7z m6301 -33 c-3 -8 -6 -5 -6 6 -1 11 2 17
5 13 3 -3 4 -12 1 -19z m-6185 -199 c3 -85 9 -175 12 -201 5 -51 -4 -62 -22
-25 -15 31 -23 389 -8 384 7 -2 13 -58 18 -158z m112 -94 c2 -83 7 -177 11
-210 l8 -60 -25 23 c-24 22 -25 29 -31 185 -4 89 -10 182 -13 206 l-7 45 27
-20 c26 -19 26 -20 30 -169z m6229 6 c0 -20 -8 -52 -18 -71 -17 -35 -83 -110
-96 -110 -4 0 -22 29 -40 64 -31 60 -32 65 -17 88 9 13 47 41 85 61 76 40 86
37 86 -32z m-906 -73 c-3 -7 -5 -2 -5 12 0 14 2 19 5 13 2 -7 2 -19 0 -25z
m1800 -520 c-3 -13 -11 -78 -18 -145 -7 -67 -16 -120 -20 -117 -21 12 -28 80
-17 158 13 99 22 126 44 126 12 0 15 -6 11 -22z m57 -238 c-25 -160 -26 -147
-8 93 6 72 9 86 20 75 10 -10 8 -42 -12 -168z m102 93 c4 -10 6 -25 4 -33 -18
-98 -59 -282 -59 -270 0 8 6 78 14 155 8 77 15 146 15 153 0 18 17 15 26 -5z
m-5675 -85 c11 -71 37 -154 54 -168 12 -10 18 -10 30 0 16 14 13 76 -7 129 -5
13 -7 25 -5 27 2 2 33 -18 68 -44 78 -60 384 -279 407 -292 45 -26 45 -24 8
-97 -23 -46 -53 -86 -88 -118 -63 -56 -219 -174 -232 -175 -5 0 -20 48 -32
107 -43 210 -70 283 -96 267 -23 -14 8 -232 51 -358 18 -56 18 -61 3 -72 -22
-17 -21 -20 -73 220 -40 186 -55 224 -77 201 -22 -22 11 -258 56 -402 17 -53
18 -64 6 -74 -8 -7 -16 -10 -17 -8 -2 2 -22 101 -45 219 -40 201 -131 597
-145 630 -9 21 59 60 98 57 27 -2 30 -6 36 -49z m3386 -30 c-3 -7 -5 -2 -5 12
0 14 2 19 5 13 2 -7 2 -19 0 -25z m2359 -27 c-7 -22 -34 -248 -42 -351 -5 -69
-11 -91 -30 -113 -13 -15 -25 -27 -27 -27 -2 0 2 30 9 68 7 37 24 150 39 252
14 102 28 196 32 210 l5 25 9 -24 c5 -13 7 -31 5 -40z m-199 -148 c-3 -10 -5
-4 -5 12 0 17 2 24 5 18 2 -7 2 -21 0 -30z m70 -80 c-3 -10 -5 -4 -5 12 0 17
2 24 5 18 2 -7 2 -21 0 -30z m526 -11 l28 -17 5 -150 c4 -142 17 -324 31 -444
6 -53 6 -53 -18 -46 -13 4 -27 10 -31 14 -4 3 -12 83 -18 176 -11 185 -37 446
-46 470 -8 20 14 19 49 -3z m-536 -59 c-3 -10 -5 -4 -5 12 0 17 2 24 5 18 2
-7 2 -21 0 -30z m453 -243 c6 -96 13 -200 15 -230 l5 -55 -24 50 c-45 91 -57
335 -23 465 l12 45 2 -50 c2 -27 7 -129 13 -225z m-7450 250 c0 -5 -5 -10 -11
-10 -5 0 -7 5 -4 10 3 6 8 10 11 10 2 0 4 -4 4 -10z m7693 -208 c3 -92 11
-222 18 -290 6 -67 10 -124 8 -126 -2 -2 -19 -1 -36 1 l-33 5 0 127 c0 115 -7
217 -26 419 l-7 73 35 -21 35 -20 6 -168z m-714 74 c-9 -8 -10 -2 -5 29 3 22
7 49 8 60 1 11 3 -2 5 -29 3 -30 0 -53 -8 -60z m829 28 l34 -22 4 -208 c2
-115 8 -256 13 -314 5 -58 8 -107 5 -109 -8 -8 -57 44 -70 76 -8 19 -14 68
-14 121 0 81 -21 347 -36 450 -6 38 -5 42 12 35 11 -3 34 -16 52 -29z m141
-133 l42 -50 2 -266 c2 -262 2 -266 -18 -261 -11 3 -25 6 -31 6 -7 0 -15 88
-23 253 -7 138 -16 278 -20 310 -4 31 -4 57 0 57 4 0 26 -22 48 -49z m-8043
-168 c-7 -7 -66 17 -66 27 0 4 10 12 23 17 19 9 24 7 35 -14 8 -14 11 -27 8
-30z m8181 25 c6 -7 14 -96 18 -198 4 -102 10 -221 14 -265 4 -44 6 -82 4 -84
-2 -3 -17 11 -33 30 l-29 34 -1 210 c0 116 -3 227 -6 248 -5 29 -3 37 8 37 9
0 20 -6 25 -12z m109 -48 l29 -10 3 -208 c1 -114 6 -246 10 -294 8 -89 5 -96
-27 -78 -16 8 -19 30 -26 187 -4 98 -12 231 -19 296 -6 64 -9 117 -5 117 3 0
19 -5 35 -10z m150 -236 c2 -98 8 -231 14 -297 6 -65 10 -120 8 -122 -2 -1
-17 4 -34 11 l-31 13 -6 238 c-4 131 -10 266 -13 301 l-7 62 33 -13 32 -14 4
-179z m-10592 114 c-7 -11 -7 -11 -24 22 -13 25 -13 25 8 6 12 -10 19 -23 16
-28z m10695 -37 c14 -28 20 -72 25 -191 4 -85 11 -197 17 -249 6 -51 9 -95 6
-97 -2 -2 -18 1 -35 7 -32 11 -32 11 -32 82 0 68 -11 252 -26 432 -7 75 -6 79
10 66 10 -8 26 -31 35 -50z m-4118 -184 c-4 -4 -13 18 -20 49 -16 82 -13 88 9
19 11 -33 16 -63 11 -68z m4244 71 l35 -23 0 -146 c0 -80 3 -180 6 -222 l7
-77 -30 10 -29 11 -13 206 c-7 114 -15 220 -18 235 -7 34 -3 34 42 6z m124
-85 c20 -17 22 -30 25 -188 3 -93 8 -180 12 -192 5 -20 3 -23 -20 -23 -14 0
-26 6 -26 13 -1 57 -21 358 -26 380 -6 31 5 34 35 10z m108 -79 l33 -25 1 -97
c0 -53 4 -123 8 -155 8 -62 3 -72 -29 -62 -16 5 -20 15 -20 56 0 63 -18 234
-30 277 -10 39 -7 39 37 6z m-1132 -65 c41 -37 43 -49 11 -86 -24 -28 -24 -28
-59 -11 -28 13 -39 27 -48 59 -12 37 -11 43 6 55 29 21 51 17 90 -17z m1297
-187 c3 -59 5 -108 3 -110 -1 -2 -14 0 -27 3 -24 6 -25 11 -32 103 -4 53 -9
115 -13 137 l-5 40 33 -33 c33 -32 34 -35 41 -140z m-9083 -25 c9 -12 -6 -14
-87 -12 -115 2 -115 2 -107 15 10 16 180 13 194 -3z m5771 -17 c0 -5 -5 -10
-11 -10 -5 0 -7 5 -4 10 3 6 8 10 11 10 2 0 4 -4 4 -10z m22 -142 c-7 -7 -12
-8 -12 -2 0 14 12 26 19 19 2 -3 -1 -11 -7 -17z m2706 -120 c7 -46 15 -94 18
-108 5 -18 4 -22 -5 -15 -10 10 -71 178 -71 197 0 4 10 8 23 8 21 0 24 -7 35
-82z m115 -10 c3 -51 15 -129 26 -173 11 -44 18 -82 15 -84 -12 -12 -43 53
-54 114 -7 38 -23 107 -35 152 l-23 83 32 0 33 0 6 -92z m105 62 c8 -80 37
-238 58 -322 13 -53 24 -99 24 -102 0 -2 -18 3 -40 12 -39 17 -40 18 -40 69 0
49 -38 267 -59 341 -10 33 -10 33 22 30 26 -2 33 -8 35 -28z m125 5 c21 -4 22
-8 24 -132 1 -74 10 -177 22 -243 11 -63 18 -116 17 -118 -2 -1 -17 5 -35 15
-26 15 -30 23 -26 44 9 41 -37 322 -71 432 -5 15 -1 17 20 12 14 -3 36 -7 49
-10z m-463 -21 c0 -8 -4 -12 -10 -9 -5 3 -10 10 -10 16 0 5 5 9 10 9 6 0 10
-7 10 -16z m639 -20 c28 -8 51 -20 51 -27 0 -74 58 -443 80 -510 11 -33 -6
-45 -38 -28 -14 8 -21 25 -25 69 -8 74 -63 358 -83 430 -15 55 -38 69 -48 29
-12 -48 24 -281 64 -421 10 -36 16 -66 13 -66 -3 0 -18 7 -33 17 -25 15 -29
23 -35 92 -10 116 -45 372 -55 410 l-9 33 34 -6 c18 -4 56 -13 84 -22z m-2919
-73 c0 -7 -41 -34 -44 -29 -22 33 -36 58 -36 62 0 2 18 -3 40 -11 22 -9 40
-19 40 -22z m-380 19 c0 -5 -8 -10 -17 -10 -15 0 -16 2 -3 10 19 12 20 12 20
0z m3450 -18 c9 -200 26 -325 59 -431 16 -52 17 -62 4 -57 -8 3 -18 6 -22 6
-5 0 -11 39 -15 86 -4 48 -19 150 -33 228 -14 77 -28 154 -31 170 -4 26 -3 27
17 17 11 -7 21 -15 21 -19z m-3425 -43 c11 -17 0 -20 -21 -4 -17 13 -17 14 -2
15 9 0 20 -5 23 -11z m-5851 -31 c7 -18 12 -35 10 -37 -3 -3 -102 27 -118 37
-11 6 48 30 76 31 11 1 23 -12 32 -31z m9380 -43 c19 -13 25 -28 30 -83 6 -62
44 -268 62 -337 l7 -30 -32 28 c-18 15 -37 27 -42 27 -5 0 -9 15 -9 33 0 17
-11 106 -25 197 -14 91 -25 168 -25 173 0 11 8 9 34 -8z m268 -146 c9 -178 24
-320 49 -458 11 -62 17 -116 14 -120 -11 -10 -46 41 -40 59 5 16 -45 380 -79
572 -13 75 -13 77 8 81 12 2 26 3 31 2 6 -1 13 -60 17 -136z m-118 39 c10
-112 32 -262 56 -371 11 -50 18 -92 17 -94 -2 -1 -15 10 -29 25 -21 23 -27 46
-41 147 -14 102 -50 273 -73 353 -6 20 -3 22 29 22 l34 0 7 -82z m-3779 -8
c-3 -5 -13 -10 -21 -10 -8 0 -12 5 -9 10 3 6 13 10 21 10 8 0 12 -4 9 -10z
m-5701 -10 c-6 -6 -21 -6 -39 -1 -30 9 -30 9 10 10 25 1 36 -2 29 -9z m6157
-137 c13 -15 12 -15 -8 -4 -24 12 -29 21 -14 21 5 0 15 -7 22 -17z m-311 -68
c0 -7 -42 -23 -78 -30 -16 -3 -9 2 18 14 48 21 60 24 60 16z m-5100 -89 c0 -2
-21 -17 -47 -32 -27 -15 -59 -34 -73 -43 -24 -15 -24 -15 -10 3 28 36 130 92
130 72z m5120 -23 c0 -29 -14 -43 -38 -36 -12 3 -22 8 -22 12 0 5 43 35 58 40
1 1 2 -7 2 -16z m-6741 -115 c22 -15 23 -20 12 -46 -7 -17 -23 -40 -37 -53
l-24 -22 0 27 c0 15 -9 44 -20 66 -24 48 -24 48 -2 52 21 5 40 -1 71 -24z
m-138 -48 c12 -28 32 -59 45 -69 l24 -19 -30 -12 c-17 -7 -30 -16 -30 -21 0
-16 54 -22 97 -11 106 29 180 8 241 -66 74 -92 138 -149 187 -167 l48 -19 -49
-15 c-37 -12 -50 -21 -52 -38 -3 -17 4 -26 25 -35 26 -12 23 -13 -47 -18 -47
-4 -96 -1 -131 8 -53 13 -70 12 -275 -22 -241 -40 -301 -43 -344 -21 -36 19
-67 58 -75 95 -4 17 -15 36 -26 43 -10 8 -41 59 -68 113 -27 54 -61 118 -76
142 -25 40 -25 42 -6 42 15 0 31 -22 66 -89 56 -109 121 -201 141 -201 8 0 17
7 20 15 6 16 -52 144 -101 223 l-26 42 28 -1 c25 0 32 -9 70 -87 71 -145 153
-236 153 -168 0 29 -61 154 -109 226 l-31 45 33 12 c43 16 47 15 47 -3 0 -21
63 -146 103 -206 36 -54 67 -64 67 -22 0 31 -57 157 -100 220 -17 26 -30 47
-28 48 2 1 15 7 31 14 24 10 27 9 27 -7 0 -26 54 -130 89 -171 26 -31 31 -33
45 -20 13 13 13 21 -4 68 -10 29 -33 75 -49 103 -17 27 -31 53 -31 58 0 7 55
35 77 40 1 1 12 -22 24 -49z m831 -22 c66 -33 82 -55 56 -75 -7 -6 -71 -20
-142 -32 l-129 -22 -28 27 c-16 15 -29 32 -29 38 0 6 21 32 48 59 l47 49 55
-6 c33 -3 81 -18 122 -38z m-1410 -173 c59 -119 64 -133 42 -123 -13 6 -38 36
-55 67 -17 31 -51 84 -75 119 -24 35 -44 65 -44 67 0 3 15 5 33 4 31 -1 34 -5
99 -134z m7793 -16 c16 -16 -30 -10 -51 6 -18 14 -17 15 11 9 17 -4 34 -11 40
-15z m-6306 -216 c38 -77 37 -80 -15 -85 -38 -3 -48 0 -52 14 -5 20 -11 22
-120 38 -45 7 -84 16 -87 20 -5 8 172 47 222 49 28 1 35 -4 52 -36z m6254 -10
c-7 -2 -19 -2 -25 0 -7 3 -2 5 12 5 14 0 19 -2 13 -5z m-618 -93 c18 -20 17
-20 -41 -20 -70 0 -104 15 -58 25 16 4 34 8 39 10 25 8 43 4 60 -15z m59 -115
c-4 -8 -14 -15 -23 -15 -14 1 -13 3 3 15 25 19 27 19 20 0z m2446 -55 c0 -15
-7 -20 -25 -20 -27 0 -32 9 -13 28 18 18 38 14 38 -8z m340 -25 l34 -35 -37 0
c-36 0 -37 1 -37 35 0 19 1 35 3 35 2 0 18 -16 37 -35z m-2824 -91 c8 -20 13
-38 11 -41 -6 -5 -161 15 -185 24 -10 4 14 15 64 29 43 12 83 22 87 23 4 0 15
-15 23 -35z m2489 -14 c-3 -5 -16 -10 -28 -10 -18 0 -19 2 -7 10 20 13 43 13
35 0z m-98 -176 c-3 -3 -24 -3 -47 1 -45 8 -45 14 3 31 28 10 33 9 41 -7 5
-11 6 -22 3 -25z m-7437 6 c36 -5 84 -10 107 -10 23 0 44 -4 47 -9 6 -9 -60
-31 -97 -31 -22 0 -151 35 -170 47 -15 9 5 23 26 18 12 -3 51 -9 87 -15z
m4974 -39 c15 -17 15 -19 1 -25 -33 -12 -155 -1 -155 14 0 6 79 25 121 29 9 0
24 -7 33 -18z m-4379 -10 c-6 -5 -49 -21 -97 -35 -82 -25 -94 -26 -170 -16
-45 5 -85 10 -88 11 -3 1 27 11 65 24 56 19 93 23 185 24 67 1 110 -3 105 -8z
m-475 -101 l25 -8 -25 -2 c-14 -1 -49 -5 -77 -9 -59 -8 -70 1 -20 17 39 12 64
13 97 2z m5005 -30 c21 -66 -71 -101 -245 -91 l-45 2 79 24 c44 13 104 37 135
53 68 37 68 37 76 12z m-5870 -10 c-11 -5 -29 -9 -40 -9 l-20 0 20 9 c11 5 29
9 40 9 l20 0 -20 -9z m98 -89 c15 -27 27 -51 27 -54 0 -3 -21 0 -47 8 -27 7
-75 19 -108 25 -33 6 -67 14 -75 17 -11 4 107 40 171 52 3 0 18 -21 32 -48z
m8597 -26 c-14 -17 -44 -5 -60 25 -16 30 -12 32 31 10 33 -17 38 -24 29 -35z
m-8853 -101 c191 -29 297 -29 319 1 12 17 16 15 54 -19 22 -20 45 -36 50 -36
6 0 10 -3 10 -8 0 -4 -96 -6 -212 -4 l-213 4 -102 40 c-57 23 -103 42 -103 44
0 7 30 4 197 -22z m6709 4 l49 -22 -54 -8 c-30 -5 -56 -6 -59 -4 -5 5 6 56 12
56 2 0 25 -10 52 -22z m-6771 -128 c3 -6 -1 -7 -9 -4 -18 7 -21 14 -7 14 6 0
13 -4 16 -10z m85 -25 c19 -7 28 -13 20 -13 -8 0 -31 6 -50 13 -19 7 -28 13
-20 13 8 0 31 -6 50 -13z m8953 -184 c37 -16 46 -25 49 -48 2 -22 11 -31 47
-44 l44 -16 -33 -6 c-59 -12 -106 -8 -123 11 -19 21 -47 85 -47 107 0 20 9 19
63 -4z m2127 -62 c-17 -35 -29 -56 -26 -47 3 9 10 36 16 60 11 37 28 63 37 54
2 -2 -11 -32 -27 -67z m-9185 -8 c13 -41 -7 -70 -88 -132 -109 -83 -142 -96
-264 -104 -97 -7 -101 -6 -108 14 -9 29 -11 29 -508 117 -87 15 -164 32 -172
38 -12 9 -12 15 -2 35 27 52 28 52 339 -51 342 -113 409 -132 450 -123 31 7
194 113 283 184 58 46 62 47 70 22z m4652 -17 c-3 -3 -12 -4 -19 -1 -8 3 -5 6
6 6 11 1 17 -2 13 -5z m-942 -34 c18 -19 17 -20 -7 -20 -14 0 -47 3 -74 7
l-49 7 40 12 c57 18 69 17 90 -6z m-3520 -92 c22 -17 70 -84 118 -164 4 -7 -2
-12 -16 -12 -12 0 -80 -5 -152 -10 -132 -10 -325 -5 -325 8 0 14 37 39 117 79
45 22 97 54 115 69 67 58 99 65 143 30z m-1120 -48 c83 -16 191 -36 240 -43
l90 -13 -177 -14 c-161 -12 -181 -12 -220 3 -52 20 -150 114 -108 103 14 -3
93 -20 175 -36z m3221 -16 c-4 -9 -9 -15 -11 -12 -3 3 -3 13 1 22 4 9 9 15 11
12 3 -3 3 -13 -1 -22z m1552 -30 c2 -14 -6 -27 -24 -39 -23 -15 -43 -17 -133
-12 -58 2 -123 11 -145 19 l-39 14 119 13 c66 6 135 16 154 21 49 12 65 8 68
-16z m3484 -84 c51 -16 57 -30 14 -30 -28 0 -73 12 -94 26 -2 1 2 12 8 24 10
19 13 20 23 7 7 -8 29 -20 49 -27z m-14063 -117 c28 -58 49 -108 47 -110 -4
-5 -90 150 -105 190 -6 15 -7 27 -2 27 5 0 32 -48 60 -107z m5049 15 c-5 -14
-135 -61 -258 -95 -69 -18 -80 -19 -130 -6 -63 16 -124 50 -159 87 l-24 26
287 0 c224 0 287 -3 284 -12z m785 -65 l132 -38 -60 -6 c-66 -6 -114 7 -152
43 -28 26 -31 10 -3 -20 11 -12 20 -24 20 -27 0 -3 -29 -5 -65 -5 -36 0 -65 4
-65 9 0 5 -3 22 -6 39 -6 28 -4 31 22 35 16 2 33 5 37 6 4 0 67 -16 140 -36z
m7037 22 c-13 -16 -47 -19 -77 -8 -16 6 -15 8 7 14 14 4 38 7 54 8 24 1 27 -1
16 -14z m1363 -34 c21 -9 20 -10 -15 -25 -48 -20 -118 -22 -118 -2 0 41 12 48
62 42 26 -4 58 -11 71 -15z m-4059 -20 c4 -5 -3 -7 -14 -4 -23 6 -26 13 -6 13
8 0 17 -4 20 -9z m1636 -61 c-8 -5 -24 -10 -35 -10 -17 0 -17 2 -5 10 8 5 24
10 35 10 17 0 17 -2 5 -10z m-250 -29 l75 -18 -40 -11 c-84 -22 -166 -34 -199
-29 -47 8 -139 48 -129 57 26 25 194 25 293 1z m-5525 -13 c6 -13 26 -27 50
-34 22 -6 36 -12 30 -13 -14 -1 -225 56 -232 63 -4 3 27 6 68 6 67 0 75 -2 84
-22z m-1560 -33 c33 -13 135 -45 228 -71 92 -26 167 -51 167 -56 0 -4 -14 -17
-31 -27 -28 -17 -35 -18 -53 -6 -12 7 -38 17 -58 20 -30 6 -37 12 -40 33 -3
25 -9 28 -93 45 -106 22 -253 66 -261 78 -11 18 83 8 141 -16z m1399 -44 c-9
-37 10 -44 133 -47 85 -2 161 -11 273 -34 85 -17 156 -33 158 -35 10 -9 -145
-17 -238 -12 -194 11 -372 72 -455 157 l-37 38 85 -25 c65 -20 84 -29 81 -42z
m6139 39 c-24 -10 -254 -32 -261 -25 -2 2 18 10 44 19 54 16 256 22 217 6z
m-737 -15 c18 -14 18 -14 -8 -15 -18 0 -28 5 -28 15 0 19 11 19 36 0z m2914
-24 c0 -5 -21 -12 -47 -15 -27 -4 -57 -10 -68 -13 -31 -8 -8 10 28 24 39 14
87 16 87 4z m-9906 -51 c-5 -5 -29 -6 -59 -1 l-50 9 60 1 c37 1 56 -2 49 -9z
m7163 -30 c59 0 104 -3 101 -6 -11 -10 -207 -5 -225 6 -17 11 -17 11 0 6 10
-3 66 -6 124 -6z m2683 -39 c115 -26 112 -21 31 -46 -81 -26 -87 -25 -148 18
-40 28 -41 31 -27 52 l15 23 42 -18 c23 -10 62 -23 87 -29z m-3569 -32 c16
-11 29 -24 29 -29 0 -13 -215 -22 -305 -13 l-80 8 155 26 c85 15 159 27 163
28 5 0 22 -8 38 -20z m-6054 -5 c-3 -3 -12 -4 -19 -1 -8 3 -5 6 6 6 11 1 17
-2 13 -5z m86 -11 c-13 -2 -35 -2 -50 0 -16 2 -5 4 22 4 28 0 40 -2 28 -4z
m8224 -9 c-3 -3 -12 -4 -19 -1 -8 3 -5 6 6 6 11 1 17 -2 13 -5z m-2252 -63
c-17 -16 -248 -138 -286 -151 -58 -21 -87 -7 -113 53 -45 101 -57 92 117 89
83 -1 179 1 212 6 33 5 64 10 70 11 6 1 6 -2 0 -8z m-4663 -25 c90 -34 180
-80 202 -105 13 -15 15 -20 5 -17 -15 6 -344 76 -353 76 -10 0 -7 30 4 51 15
26 64 25 142 -5z m-3143 -118 c42 -78 31 -68 -44 42 -48 70 -52 79 -24 53 19
-18 49 -60 68 -95z m10396 42 c-11 -5 -29 -8 -40 -8 -16 0 -15 2 5 8 34 11 60
11 35 0z m-7729 -77 c8 -43 -23 -112 -61 -137 -22 -14 -24 -14 -35 14 -6 16
-9 42 -5 58 7 34 72 115 85 107 5 -3 12 -22 16 -42z m373 6 c24 -9 29 -14 19
-20 -23 -15 -45 -10 -51 11 -3 11 -4 20 -3 20 2 0 18 -5 35 -11z m466 -197
l50 -32 -47 0 c-38 0 -68 11 -146 51 -55 28 -112 62 -128 74 -24 19 -11 17 96
-20 69 -23 148 -56 175 -73z m3775 68 c0 -5 -18 -10 -40 -10 -22 0 -40 5 -40
10 0 6 18 10 40 10 22 0 40 -4 40 -10z m654 -11 c-50 -55 -159 -80 -280 -64
-33 4 -54 9 -48 12 17 6 317 71 333 72 10 1 9 -5 -5 -20z m-4794 -59 c13 -8
13 -10 -2 -10 -9 0 -20 5 -23 10 -8 13 5 13 25 0z m612 -12 c-8 -8 -20 -8 -44
-1 l-33 11 45 1 c33 1 41 -2 32 -11z m6271 -46 c23 -21 62 -53 86 -72 l44 -34
-34 -29 c-19 -15 -61 -44 -94 -64 -92 -54 -135 -92 -176 -156 -71 -109 -76
-217 -10 -217 16 0 140 48 276 106 225 96 345 137 360 123 11 -11 -36 -137
-66 -180 -18 -24 -69 -81 -114 -126 -86 -84 -183 -219 -240 -333 -75 -149
-147 -175 -280 -100 -112 63 -225 75 -361 39 -117 -31 -151 -37 -244 -41 -83
-3 -84 -3 -90 22 -4 18 -15 27 -35 31 l-30 6 35 6 c19 3 73 8 120 11 110 8
157 21 192 56 35 35 36 63 2 89 l-26 20 37 45 c21 24 37 48 36 52 -1 5 8 11
20 14 32 8 35 28 5 39 -13 6 -96 20 -183 31 -87 12 -159 23 -161 25 -2 2 6 6
17 10 12 3 21 10 21 14 0 5 80 11 178 14 196 6 275 19 270 45 -3 13 -20 15
-120 13 l-117 -2 2 27 c3 37 -17 46 -163 77 -128 28 -104 36 31 11 80 -14 92
-14 150 1 35 8 88 32 118 52 l55 36 36 -43 36 -42 148 216 c81 119 157 223
169 231 33 23 54 18 100 -23z m-6494 -111 c106 -17 195 -32 198 -34 5 -5 -121
-17 -202 -19 -50 -1 -177 43 -221 77 -18 15 -18 15 6 10 14 -3 112 -18 219
-34z m-1544 -102 c-16 -4 -97 -19 -180 -32 l-150 -24 -55 21 -55 21 35 3 c251
21 458 26 405 11z m119 -38 c3 -4 -13 -27 -36 -49 -30 -30 -54 -44 -92 -52
-71 -16 -331 -23 -386 -11 -36 8 -25 9 57 4 101 -5 102 -5 108 19 6 22 19 26
168 60 89 19 165 36 169 37 4 0 9 -3 12 -8z m6723 -83 c165 -64 193 -82 84
-54 -58 15 -277 113 -256 115 5 1 83 -27 172 -61z m-165 -3 c55 -35 59 -45 19
-45 -35 0 -81 35 -81 62 0 23 -1 23 62 -17z m-1222 -30 c47 3 101 8 120 11
l35 4 -40 -36 c-46 -42 -164 -101 -174 -87 -3 5 -22 15 -41 23 -53 21 -168 78
-173 87 -3 5 38 5 91 1 54 -5 135 -6 182 -3z m-6140 -60 c0 -16 -36 -20 -80
-8 l-25 7 25 7 c45 13 80 10 80 -6z m921 -12 c6 -6 -44 -21 -138 -41 -214 -46
-229 -47 -123 -7 52 20 111 43 130 51 37 14 115 13 131 -3z m5772 -110 c-38
-35 -71 -63 -75 -63 -4 0 -12 9 -18 19 -9 17 0 28 62 79 65 54 73 59 85 44 11
-15 4 -25 -54 -79z m1022 52 c102 -31 59 -31 -60 0 -66 17 -81 23 -55 23 19 1
71 -10 115 -23z m-66 -81 c2 -2 -14 -4 -37 -4 -30 0 -42 4 -42 14 0 12 7 12
38 4 20 -5 39 -12 41 -14z m-6288 1 c0 -10 -36 -17 -141 -28 -48 -5 -43 -3 35
17 96 25 107 26 106 11z m-1009 -46 c9 -5 58 -9 108 -9 75 0 91 -3 87 -14 -3
-8 0 -22 8 -33 25 -34 556 -19 784 23 l34 7 -7 -44 c-15 -94 -110 -203 -213
-244 -60 -24 -188 -45 -278 -45 -79 0 -147 25 -202 73 -43 39 -63 47 -198 86
-214 62 -365 112 -480 161 -55 24 -103 46 -107 49 -11 10 445 0 464 -10z
m5428 -199 c0 -16 -6 -18 -37 -14 -86 12 -91 16 -33 29 62 13 70 11 70 -15z
m2204 -89 c6 -9 -26 -21 -54 -21 -9 1 -5 7 10 15 30 17 37 18 44 6z m-599 -90
l40 -9 -40 0 c-22 0 -65 3 -95 8 l-55 7 55 1 c30 0 73 -3 95 -7z m-815 -64 l0
-34 -75 -16 c-42 -10 -81 -17 -88 -17 -12 0 140 97 156 99 4 1 7 -14 7 -32z
m947 -79 l172 -12 -47 -26 c-26 -14 -67 -39 -91 -54 -80 -51 -144 -76 -195
-76 -43 0 -53 4 -81 35 -26 27 -75 135 -75 165 0 3 33 0 73 -7 39 -7 149 -18
244 -25z m-1007 -28 c-8 -5 -19 -10 -25 -10 -5 0 -3 5 5 10 8 5 20 10 25 10 6
0 3 -5 -5 -10z m-2646 -140 c4 -24 3 -29 -3 -15 -4 11 -11 36 -15 55 -4 24 -3
29 3 15 4 -11 11 -36 15 -55z"/>
<path d="M11737 13212 c-32 -70 -61 -178 -53 -198 8 -21 33 -17 51 9 22 32 79
213 72 232 -4 8 -15 15 -25 15 -14 0 -27 -17 -45 -58z"/>
<path d="M13321 12527 c-34 -41 -127 -621 -108 -671 10 -24 26 -19 38 12 17
42 66 303 83 440 24 187 20 258 -13 219z"/>
<path d="M13322 12103 c-49 -166 -83 -776 -45 -814 23 -23 32 36 58 371 29
382 31 480 12 480 -8 0 -19 -17 -25 -37z"/>
<path d="M10283 12108 c-4 -7 -10 -107 -13 -223 -4 -161 -9 -216 -20 -237 -14
-25 -15 -16 -12 111 3 111 1 139 -11 149 -11 10 -17 9 -25 -1 -14 -16 -30
-149 -37 -292 -3 -60 -8 -111 -12 -112 -5 -2 -7 45 -5 104 4 115 -7 167 -32
157 -19 -7 -24 -33 -41 -219 -7 -82 -21 -175 -30 -205 -19 -62 -15 -207 8
-337 9 -49 10 -78 3 -90 -12 -22 -21 -275 -12 -337 6 -35 11 -46 26 -46 21 0
26 18 36 125 l7 79 34 -119 c54 -192 66 -255 67 -340 1 -98 -23 -156 -107
-259 -99 -119 -133 -295 -75 -381 33 -48 43 -119 32 -212 l-8 -68 -6 62 c-8
70 -24 100 -46 82 -11 -9 -14 -43 -14 -138 1 -133 11 -209 29 -220 7 -5 5 -26
-7 -70 l-18 -64 -17 102 c-18 111 -29 141 -54 141 -14 0 -15 -14 -10 -127 4
-71 13 -173 22 -227 11 -74 12 -102 4 -112 -6 -8 -15 -14 -19 -14 -4 0 -10 51
-13 113 -7 144 -23 219 -45 215 -14 -3 -18 -21 -22 -103 -4 -89 -6 -95 -13
-57 -9 45 -32 65 -49 41 -11 -16 -3 -255 11 -313 7 -30 6 -44 -4 -59 -13 -18
-14 -17 -19 14 -6 46 -44 537 -51 674 -7 118 -11 145 -25 145 -50 0 -30 -619
29 -890 6 -27 3 -44 -12 -72 -12 -21 -24 -38 -28 -38 -3 0 -10 62 -13 138 -8
146 -31 378 -42 405 -3 10 -12 17 -19 17 -30 0 -31 -162 -3 -453 7 -78 8 -121
1 -128 -7 -7 -12 32 -16 113 -7 146 -24 247 -43 268 -13 13 -16 13 -24 0 -19
-30 -6 -293 21 -429 10 -49 9 -55 -10 -74 -22 -23 -22 -23 -26 36 -2 25 -39
77 -55 77 -4 0 -12 -30 -18 -67 -6 -38 -18 -95 -26 -128 l-14 -60 -1 45 c-2
65 -28 199 -41 215 -47 57 -55 -91 -14 -282 4 -22 3 -33 -5 -33 -6 0 -11 15
-11 33 -1 48 -17 109 -31 118 -8 4 -20 3 -27 -4 -11 -9 -13 -32 -10 -99 3 -73
1 -91 -12 -103 -16 -14 -18 -10 -23 47 -8 83 -15 100 -41 96 -19 -3 -21 -10
-24 -78 -2 -41 2 -93 8 -114 9 -31 9 -40 -2 -47 -26 -17 -35 -8 -37 39 -2 64
-9 82 -31 82 -28 0 -34 -17 -33 -90 1 -65 1 -65 -38 -89 -36 -23 -69 -74 -56
-88 3 -3 20 6 36 20 17 14 60 32 103 42 66 17 78 24 130 77 32 32 62 58 68 58
5 0 10 5 10 10 0 6 5 10 10 10 6 0 31 10 56 22 51 24 79 62 89 121 5 28 10 36
18 28 28 -28 76 6 128 90 16 25 31 39 46 39 30 0 78 60 162 198 41 69 96 145
134 184 l65 67 12 88 c18 137 57 301 80 338 25 40 54 123 80 228 36 143 102
230 199 261 25 8 81 20 124 26 96 12 168 42 205 85 16 18 52 79 80 136 74 149
202 451 196 461 -11 18 -30 6 -59 -37 -16 -24 -33 -45 -37 -45 -5 0 -8 26 -8
58 0 71 -27 225 -44 248 -8 11 -18 14 -26 9 -14 -9 -8 -200 10 -328 7 -50 7
-74 -2 -90 -10 -19 -13 -11 -23 68 -16 121 -34 192 -51 199 -18 7 -34 -23 -35
-66 0 -18 -11 21 -24 88 -22 120 -37 164 -55 164 -5 0 -12 -11 -16 -25 -8 -32
21 -284 52 -453 13 -73 22 -138 19 -143 -14 -22 -24 -5 -34 59 -21 119 -39
172 -61 172 -18 0 -20 -7 -20 -67 1 -38 7 -98 14 -135 12 -62 11 -68 -4 -68
-14 0 -18 15 -23 103 -8 122 -32 264 -48 283 -9 12 -15 12 -27 2 -12 -11 -14
-31 -8 -115 3 -57 9 -129 12 -160 l6 -58 -25 30 c-22 26 -26 43 -32 125 -8
121 -32 286 -46 311 -23 44 -34 14 -34 -94 0 -59 -3 -107 -6 -107 -15 0 -38
83 -44 160 -6 91 -37 246 -55 280 -13 24 -35 26 -44 4 -7 -20 9 -155 28 -239
13 -53 14 -77 2 -64 -2 2 -25 94 -51 204 -87 370 -110 557 -81 657 13 47 25
64 72 104 64 55 83 89 153 276 58 155 101 307 101 358 0 49 -14 30 -59 -80
l-39 -93 -7 94 c-10 125 -27 166 -52 127z m479 -1993 c-8 -13 -20 31 -20 75
-1 32 0 31 13 -15 7 -27 10 -54 7 -60z m-905 -1402 c-3 -10 -5 -2 -5 17 0 19
2 27 5 18 2 -10 2 -26 0 -35z"/>
<path d="M5241 11678 c-12 -35 -25 -91 -28 -125 -6 -60 -5 -63 16 -63 28 0 55
58 71 153 14 76 9 97 -19 97 -15 0 -24 -15 -40 -62z"/>
<path d="M5322 11608 c-52 -140 -82 -388 -47 -388 21 0 32 31 71 210 40 183
43 230 15 230 -14 0 -25 -14 -39 -52z"/>
<path d="M16545 11593 c-17 -69 49 -472 92 -555 18 -38 43 -37 43 1 0 39 -78
506 -91 549 -13 39 -34 42 -44 5z"/>
<path d="M7659 11473 c-8 -20 -8 -60 0 -139 13 -131 26 -176 50 -172 21 4 27
132 11 238 -16 101 -39 129 -61 73z"/>
<path d="M9872 11487 c-29 -35 -64 -286 -44 -316 32 -47 75 86 76 238 1 84 -8
107 -32 78z"/>
<path d="M16474 11415 c-4 -9 -4 -53 0 -98 6 -70 5 -79 -6 -58 -40 75 -53 5
-45 -233 7 -189 12 -219 36 -214 21 4 29 56 32 193 l1 110 14 -80 c23 -137 25
-145 38 -145 21 0 26 24 26 127 0 212 -65 480 -96 398z"/>
<path d="M9772 11367 c-17 -20 -41 -144 -48 -249 -5 -75 -3 -97 9 -113 11 -14
19 -17 26 -9 19 18 42 163 44 273 2 104 -6 129 -31 98z"/>
<path d="M9653 11248 c-25 -31 -75 -382 -60 -421 3 -9 13 -17 21 -17 20 0 41
74 61 216 24 165 14 266 -22 222z"/>
<path d="M9491 11177 c-10 -25 -41 -340 -41 -411 0 -57 24 -63 46 -11 20 49
44 214 44 306 0 111 -27 175 -49 116z"/>
<path d="M17380 11165 c0 -37 64 -58 305 -100 189 -33 180 -30 196 -67 28 -69
129 -89 220 -44 27 14 75 43 108 65 33 23 64 41 70 41 5 0 12 -44 16 -97 3
-54 7 -109 8 -123 1 -14 9 -26 19 -28 28 -5 42 37 42 131 0 85 1 87 24 87 13
0 32 5 43 11 27 14 47 6 126 -51 74 -55 94 -61 86 -29 -7 25 -147 147 -179
155 -12 3 -31 1 -42 -5 -39 -21 -70 -13 -87 20 -17 33 -31 33 -86 0 -187 -110
-212 -123 -245 -123 -40 0 -57 12 -73 50 -6 15 -20 33 -31 40 -11 6 -111 23
-222 37 -112 14 -224 29 -250 34 -35 5 -48 4 -48 -4z"/>
<path d="M5757 11011 c-13 -16 -58 -89 -98 -161 -76 -136 -106 -173 -221 -273
-76 -65 -141 -149 -210 -269 -47 -80 -62 -134 -35 -126 6 3 49 54 94 114 76
100 125 152 285 301 45 43 69 78 123 184 59 116 105 226 105 251 0 16 -19 7
-43 -21z"/>
<path d="M9435 10571 c-10 -17 -24 -231 -25 -386 -2 -215 -12 -308 -40 -347
-24 -35 -88 -89 -187 -157 -56 -39 -68 -43 -135 -47 -55 -3 -87 -11 -133 -33
-66 -33 -151 -108 -184 -162 -42 -68 -24 -65 71 11 85 68 168 110 216 110 30
0 32 -2 32 -32 0 -18 5 -50 11 -71 8 -31 14 -38 32 -35 20 3 22 9 22 71 0 37
2 67 5 67 3 0 10 -15 15 -32 19 -65 65 -35 65 42 0 25 10 36 73 79 41 27 94
72 119 100 l46 50 6 -31 c3 -17 6 -43 6 -58 0 -16 3 -35 6 -44 9 -24 41 -19
48 7 12 45 6 193 -10 247 -13 43 -18 121 -23 347 -4 197 -10 296 -17 303 -9 9
-14 9 -19 1z"/>
<path d="M3006 10103 c-27 -54 -96 -253 -96 -279 0 -20 4 -25 22 -22 48 7 143
260 117 310 -14 25 -26 23 -43 -9z"/>
<path d="M11127 10011 c-50 -53 -78 -105 -142 -258 l-43 -101 36 21 c59 35
149 133 178 195 28 59 47 192 27 192 -6 0 -31 -22 -56 -49z"/>
<path d="M14269 9513 c-19 -21 -62 -83 -96 -139 -47 -76 -82 -119 -145 -176
-84 -76 -130 -133 -143 -175 -10 -35 25 -30 61 8 16 17 66 60 111 95 88 70
133 124 181 220 17 33 47 87 66 120 20 32 36 65 36 72 0 25 -39 11 -71 -25z"/>
<path d="M11896 9498 c-15 -57 -7 -107 24 -140 27 -31 29 -31 30 -11 0 12 -5
56 -11 98 -12 76 -30 99 -43 53z"/>
<path d="M8760 9341 c-11 -22 -14 -190 -4 -240 5 -25 11 -31 28 -29 17 2 22
13 29 53 8 50 2 191 -9 220 -8 21 -31 19 -44 -4z"/>
<path d="M8674 9224 c-8 -31 1 -271 11 -296 12 -29 35 -30 46 0 11 28 6 257
-7 300 -9 31 -42 29 -50 -4z"/>
<path d="M8577 9193 c-11 -10 -8 -240 3 -307 5 -33 16 -66 24 -74 12 -12 16
-11 26 9 15 27 7 281 -10 342 -10 34 -27 46 -43 30z"/>
<path d="M17991 9046 c-26 -31 -81 -449 -81 -616 0 -76 12 -109 30 -79 22 34
67 361 77 555 6 127 -2 170 -26 140z"/>
<path d="M15847 8883 c-11 -10 -7 -47 6 -63 24 -30 68 -59 83 -53 26 10 16 57
-19 91 -32 31 -56 40 -70 25z"/>
<path d="M15724 8775 c-9 -23 22 -63 74 -96 57 -36 77 -34 77 6 0 23 -10 37
-50 67 -52 40 -92 49 -101 23z"/>
<path d="M9386 8648 c-23 -33 -19 -78 10 -122 l27 -39 18 34 c24 46 23 76 -3
116 -27 39 -32 40 -52 11z"/>
<path d="M3255 8133 c-223 -48 -249 -59 -223 -90 26 -32 262 5 314 48 8 6 14
20 14 30 0 16 -7 19 -42 18 -24 -1 -52 -3 -63 -6z"/>
<path d="M9991 7016 c-7 -8 -21 -67 -32 -133 -11 -65 -21 -122 -23 -128 -2 -5
-1 47 2 116 4 97 2 128 -8 134 -19 12 -35 -16 -51 -88 l-14 -62 -5 40 c-3 26
-11 41 -22 43 -21 4 -26 -13 -42 -136 l-13 -97 -4 85 c-3 69 -7 85 -20 88 -21
4 -37 -39 -45 -126 -4 -37 -10 -71 -14 -77 -4 -5 -15 -35 -23 -65 -11 -36 -28
-66 -49 -87 -36 -33 -88 -63 -112 -63 -37 0 -30 -11 107 -173 22 -26 76 -77
119 -113 96 -80 176 -179 286 -356 46 -74 108 -161 137 -194 48 -53 56 -57 69
-44 14 14 14 24 0 100 -17 91 -29 122 -135 358 -39 84 -88 205 -109 269 -37
111 -40 116 -50 87 -46 -127 -121 -171 -174 -101 -54 70 -51 175 6 206 38 22
113 2 151 -40 33 -35 32 -37 48 100 9 80 16 109 33 128 29 33 96 143 103 170
6 26 -2 53 -16 53 -6 0 -22 -12 -36 -27 l-25 -28 0 76 c0 81 -15 114 -39 85z
m-140 -349 c-10 -9 -11 -8 -5 6 3 10 9 15 12 12 3 -3 0 -11 -7 -18z m-74 -44
c-3 -10 -5 -2 -5 17 0 19 2 27 5 18 2 -10 2 -26 0 -35z"/>
<path d="M16965 6898 c-107 -86 -301 -281 -311 -310 -24 -77 110 9 259 166 84
88 121 141 113 161 -8 21 -16 19 -61 -17z"/>
<path d="M17100 6899 c-52 -32 -130 -119 -130 -146 0 -48 74 -12 153 75 58 65
44 111 -23 71z"/>
<path d="M5092 6724 c-51 -25 -100 -74 -134 -131 l-16 -28 111 27 c62 15 129
32 150 38 40 12 107 64 107 84 0 7 -17 18 -39 24 -63 19 -122 15 -179 -14z"/>
<path d="M16550 6639 c-63 -46 -210 -189 -226 -222 -31 -59 9 -63 70 -7 24 22
48 40 54 40 5 0 47 39 91 86 54 58 81 95 81 110 0 32 -19 30 -70 -7z"/>
<path d="M16360 6579 c-80 -48 -311 -262 -337 -313 -20 -38 -5 -53 33 -33 72
38 336 285 349 328 11 33 -7 41 -45 18z"/>
<path d="M15985 6527 c-120 -95 -265 -260 -265 -301 0 -9 8 -16 20 -16 25 0
370 338 370 363 0 34 -45 17 -125 -46z"/>
<path d="M1250 6562 c0 -37 74 -122 107 -122 10 0 -2 19 -33 53 -72 77 -74 79
-74 69z"/>
<path d="M1346 6422 c-6 -9 69 -84 124 -125 20 -15 75 -46 123 -70 l86 -45
-77 -7 c-97 -9 -215 -31 -242 -45 -28 -15 -25 -38 6 -46 43 -11 344 16 410 37
23 7 41 6 64 -3 32 -13 30 -14 -93 -41 -140 -30 -263 -65 -350 -97 -42 -16
-57 -26 -57 -41 0 -15 7 -19 35 -19 82 0 459 96 539 137 l30 16 43 -48 c24
-26 43 -51 43 -56 0 -5 -14 -9 -31 -9 -62 0 -284 -51 -431 -100 -155 -51 -218
-82 -218 -106 0 -18 36 -18 114 2 219 55 555 149 579 161 30 15 34 14 90 -31
l37 -30 -142 -32 c-261 -59 -634 -169 -674 -199 -15 -11 -17 -16 -7 -26 10
-10 27 -10 86 -1 161 27 593 145 722 198 l60 24 38 -42 37 -42 -162 -32 c-291
-57 -752 -186 -830 -232 -26 -15 -39 -42 -20 -42 77 2 912 210 1016 254 32 13
35 13 57 -10 12 -13 21 -26 18 -28 -2 -2 -58 -18 -124 -36 -264 -69 -659 -209
-669 -236 -8 -20 16 -28 62 -19 124 22 597 170 718 225 l60 27 29 -23 c21 -17
25 -24 15 -28 -8 -2 -76 -23 -150 -46 -256 -79 -545 -207 -545 -240 0 -24 50
-15 192 34 181 62 480 174 530 198 42 21 43 21 85 3 52 -23 68 -35 45 -35 -33
0 -270 -82 -427 -147 -181 -76 -410 -191 -417 -211 -11 -28 13 -32 68 -14 94
33 752 303 801 329 l47 25 33 -23 c18 -13 36 -27 40 -33 3 -5 -44 -26 -105
-46 -220 -74 -699 -276 -756 -318 -37 -27 -37 -42 -2 -42 73 0 763 276 868
347 l37 25 18 -24 c29 -35 49 -76 40 -81 -4 -2 -25 -8 -47 -11 -176 -31 -756
-261 -863 -342 -41 -32 -29 -46 28 -33 37 8 776 289 868 330 l44 19 25 -31
c15 -17 38 -35 52 -41 26 -11 26 -11 -14 -20 -166 -36 -643 -224 -723 -284
-38 -30 -33 -48 12 -41 88 14 744 268 781 302 14 14 28 25 30 25 2 0 21 -26
42 -58 l39 -59 -155 -52 c-185 -62 -512 -191 -593 -234 -65 -34 -76 -57 -25
-57 62 0 553 178 740 269 l78 37 45 -32 46 -33 -28 -6 c-154 -35 -560 -203
-634 -263 -19 -16 -22 -23 -13 -32 15 -17 85 5 317 97 234 92 357 149 373 170
11 14 17 12 58 -22 25 -20 44 -40 41 -43 -3 -3 -51 -22 -106 -43 -146 -55
-347 -149 -376 -176 -27 -25 -24 -43 7 -43 46 0 346 119 468 186 l64 35 33
-32 c19 -18 34 -35 34 -38 0 -4 -33 -17 -73 -30 -83 -27 -263 -110 -307 -141
-32 -23 -39 -45 -16 -53 22 -8 180 49 315 114 l124 60 29 -27 28 -27 -83 -31
c-95 -36 -204 -95 -232 -125 -14 -17 -16 -24 -7 -33 9 -9 23 -9 60 0 61 17
241 103 268 130 l22 21 25 -27 26 -27 -44 -24 c-46 -24 -60 -46 -49 -76 5 -13
14 -15 36 -11 35 7 88 42 88 59 0 6 23 -13 52 -42 29 -30 54 -48 56 -42 11 33
-227 337 -367 469 -31 29 -101 88 -156 131 -112 88 -125 101 -169 168 -33 50
-55 65 -123 82 -37 10 -46 19 -76 74 -76 134 -150 201 -307 274 -108 50 -152
85 -283 220 -51 53 -114 113 -141 135 -27 21 -57 53 -66 71 -11 20 -25 32 -39
32 -13 0 -39 21 -67 53 -53 60 -75 73 -234 132 -139 51 -250 106 -349 171 -73
48 -95 57 -105 41z"/>
<path d="M17707 6342 c-9 -9 -36 -82 -62 -162 -79 -247 -102 -311 -149 -424
-34 -79 -46 -122 -46 -157 0 -54 14 -64 31 -21 6 15 40 86 75 158 35 73 64
137 64 143 0 6 4 19 10 29 15 27 61 195 90 327 25 111 21 144 -13 107z"/>
<path d="M17604 6328 c-4 -13 -20 -51 -35 -86 -16 -34 -29 -65 -29 -67 0 -2
-12 -30 -26 -62 -14 -32 -30 -67 -35 -78 -5 -11 -40 -95 -77 -186 -47 -114
-86 -192 -124 -246 -89 -127 -93 -137 -123 -328 -14 -85 -52 -132 -150 -185
-109 -59 -305 -224 -305 -256 0 -8 12 -19 26 -25 32 -12 35 -10 245 167 48 40
131 96 194 130 89 47 125 74 191 140 90 92 59 81 299 104 278 26 355 39 355
61 0 4 -10 11 -21 14 -30 10 -462 -4 -529 -17 -52 -9 -60 -16 -140 -99 -47
-49 -91 -89 -98 -89 -15 0 -10 48 13 151 15 67 24 85 85 169 79 111 108 173
225 495 20 55 43 118 52 140 25 65 43 143 37 160 -9 22 -22 19 -30 -7z"/>
<path d="M10437 6128 c-21 -95 -37 -195 -36 -223 2 -125 45 -187 116 -169 89
22 104 121 54 349 -46 208 -49 215 -74 215 -21 0 -25 -12 -60 -172z"/>
<path d="M17734 6125 c-13 -31 -24 -61 -24 -68 0 -7 -4 -17 -8 -22 -5 -6 -19
-44 -31 -85 -13 -41 -27 -85 -32 -97 -18 -48 -59 -215 -59 -242 0 -34 13 -47
28 -28 36 46 182 504 182 573 0 44 -30 27 -56 -31z"/>
<path d="M17823 5968 c-64 -107 -136 -283 -131 -320 7 -49 34 -21 90 92 106
216 126 280 85 280 -7 0 -27 -24 -44 -52z"/>
<path d="M15312 5933 c-45 -41 -112 -143 -112 -170 0 -47 31 -40 82 18 66 75
104 145 88 164 -17 20 -23 19 -58 -12z"/>
<path d="M17908 5928 c-28 -46 -64 -134 -78 -190 -22 -88 11 -107 52 -30 36
66 80 201 73 223 -8 26 -30 24 -47 -3z"/>
<path d="M15385 5839 c-27 -39 -93 -119 -147 -178 -165 -177 -230 -294 -288
-515 -35 -137 -44 -192 -32 -200 14 -8 27 11 45 64 38 112 98 264 131 330 45
88 77 136 151 220 87 98 162 200 184 250 21 46 28 100 13 100 -5 0 -30 -32
-57 -71z"/>
<path d="M18019 5883 c-14 -17 -24 -36 -48 -96 -6 -15 -14 -52 -17 -82 -6 -51
-5 -55 14 -55 23 0 44 38 76 137 27 81 11 140 -25 96z"/>
<path d="M18100 5808 c-24 -39 -52 -133 -48 -156 2 -10 12 -17 23 -17 34 0 95
148 78 191 -9 24 -32 16 -53 -18z"/>
<path d="M3944 5685 c-16 -41 108 -214 173 -241 18 -8 54 -14 81 -14 34 0 67
-9 110 -31 76 -37 194 -51 227 -26 28 22 13 32 -74 51 -41 9 -103 32 -137 51
-50 28 -73 35 -117 35 -67 0 -100 21 -175 110 -65 76 -80 87 -88 65z"/>
<path d="M14704 5398 c-39 -46 -99 -178 -129 -285 -37 -129 -25 -216 18 -132
37 72 168 422 163 435 -8 22 -22 17 -52 -18z"/>
<path d="M14746 5287 c-52 -88 -105 -252 -126 -385 -13 -83 -7 -114 19 -98 14
9 161 464 161 499 0 41 -25 33 -54 -16z"/>
<path d="M17975 5315 c-251 -27 -354 -57 -330 -96 8 -13 124 -7 310 16 61 7
156 19 213 26 60 7 107 18 114 26 14 17 8 23 -39 34 -49 11 -119 9 -268 -6z"/>
<path d="M17997 5204 c-153 -20 -209 -46 -156 -75 42 -22 401 19 432 50 7 7 6
15 -3 26 -16 19 -118 19 -273 -1z"/>
<path d="M16175 5138 c-44 -38 -100 -86 -124 -106 -49 -42 -126 -137 -141
-176 -8 -21 -7 -28 6 -33 9 -3 39 17 83 58 37 35 106 98 151 139 79 71 140
148 140 177 0 28 -39 9 -115 -59z"/>
<path d="M14826 5135 c-48 -74 -116 -357 -116 -486 0 -114 28 -101 54 26 23
108 29 137 72 307 34 137 38 178 15 178 -5 0 -16 -11 -25 -25z"/>
<path d="M18230 5117 c-71 -36 21 -72 160 -63 139 9 196 36 141 66 -29 15
-270 13 -301 -3z"/>
<path d="M16208 5013 c-93 -87 -136 -173 -88 -173 24 0 152 125 175 171 34 65
-17 66 -87 2z"/>
<path d="M16686 4996 c-149 -92 -271 -233 -226 -261 5 -3 42 22 82 57 40 35
91 77 113 93 89 66 145 118 145 136 0 31 -38 22 -114 -25z"/>
<path d="M4197 4883 c-38 -38 69 -138 154 -145 25 -2 34 1 37 15 5 26 -13 44
-97 93 -80 46 -84 48 -94 37z"/>
<path d="M4571 4781 c-23 -15 -7 -45 34 -66 42 -20 163 -33 210 -21 25 6 35
39 15 51 -5 3 -51 12 -102 20 -51 8 -104 17 -118 19 -14 3 -32 1 -39 -3z"/>
<path d="M4775 4666 c-34 -25 -8 -49 63 -60 113 -16 223 17 184 56 -20 20
-221 24 -247 4z"/>
<path d="M5887 4065 c-8 -19 15 -104 59 -223 48 -128 81 -192 99 -192 39 0 -6
183 -86 348 -38 78 -60 99 -72 67z"/>
<path d="M6020 3975 c0 -52 145 -460 186 -522 8 -13 22 -23 31 -23 13 0 14 7
9 42 -14 90 -142 445 -181 505 -21 31 -45 30 -45 -2z"/>
<path d="M5230 3974 c0 -19 20 -48 127 -185 101 -130 125 -180 131 -279 2 -41
9 -84 15 -95 43 -85 353 -505 373 -505 36 0 13 44 -178 339 -122 190 -138 219
-138 257 0 124 -58 229 -214 390 -89 92 -116 110 -116 78z"/>
<path d="M13337 3942 c-23 -21 -61 -53 -85 -71 -61 -47 -89 -101 -101 -196 -6
-44 -23 -130 -38 -192 -15 -62 -23 -116 -19 -120 10 -10 56 46 56 69 0 9 5 20
10 23 6 3 10 16 10 29 0 12 4 26 9 32 9 9 29 95 38 164 7 58 30 94 99 165 59
61 84 98 84 126 0 18 -21 8 -63 -29z"/>
<path d="M6200 3836 c0 -59 94 -346 166 -507 19 -42 32 -59 43 -57 22 5 17 51
-15 158 -35 116 -110 321 -141 386 -29 62 -53 71 -53 20z"/>
<path d="M6365 3687 c-4 -8 4 -43 17 -78 12 -35 49 -143 83 -239 44 -129 65
-176 78 -178 56 -11 -35 338 -121 462 -30 44 -49 55 -57 33z"/>
<path d="M8402 3553 c4 -23 156 -99 318 -159 108 -40 138 -47 221 -52 72 -3
98 -1 104 8 13 21 -30 48 -83 54 -47 6 -73 14 -350 112 -163 57 -216 67 -210
37z"/>
<path d="M6540 3511 c0 -63 151 -453 182 -472 18 -11 28 -1 28 28 0 58 -135
413 -172 453 -26 28 -38 25 -38 -9z"/>
<path d="M6719 3348 c-6 -70 91 -276 177 -376 30 -35 54 -38 54 -6 0 17 -105
229 -162 327 -36 61 -66 86 -69 55z"/>
<path d="M8772 3309 c-53 -20 -9 -50 113 -80 113 -27 280 -32 280 -9 0 23 -59
47 -170 69 -123 24 -195 30 -223 20z"/>
<path d="M9053 3159 c-19 -20 -16 -27 20 -46 22 -11 65 -18 142 -21 127 -5
195 8 195 37 0 28 -18 31 -189 37 -122 5 -159 3 -168 -7z"/>
</g>
</svg>
